<svg width="683" height="639" viewBox="0 0 683 639" fill="none" xmlns="http://www.w3.org/2000/svg">
<g opacity="0.62">
<path opacity="0.62" d="M264.319 616.925C226.696 633.085 188.219 641.929 146.225 636.755C99.4178 630.985 56.7338 594.038 31.4998 556.06C22.1238 541.953 14.3525 526.015 14.1268 509.082C13.6198 469.964 50.1648 463.204 81.8388 467.469C99.6938 469.864 116.402 476.88 132.922 483.83C160.349 495.378 191.931 499.876 216.944 516.731C225.339 522.405 231.825 529.456 241.404 533.357C256.305 539.431 273.007 541.668 288.258 547.086C301.281 551.738 316.027 559.828 316.946 573.621C317.871 587.767 303.701 597.746 291.1 604.224C282.183 608.836 273.283 613.091 264.319 616.925Z" fill="url(#paint0_linear)"/>
<path opacity="0.62" d="M89.7229 123.324C146.746 26.226 274.773 -19.6235 382.805 8.4319C434.899 21.9691 479.928 54.299 521.724 88.183C558.566 118.048 594.536 150.505 620.96 190.264C639.002 217.402 652.804 250.444 663.052 281.463C678.378 327.91 671.234 389.511 609.87 389.038C595.472 388.928 582.739 384.585 569.043 380.952C557.964 378.005 547.484 380.89 536.113 379.84C507.49 377.203 479.518 368.555 452.914 358.023C398.694 336.536 348.428 305.817 292.915 287.51C247.423 272.532 199.485 266.394 151.686 269.429C131.521 270.712 110.413 273.507 91.7889 265.669C45.8829 246.329 61.9579 185.051 76.3579 150.23C80.1699 140.956 84.6359 131.965 89.7229 123.324Z" fill="url(#paint1_linear)"/>
<path opacity="0.62" d="M585.327 105.067C596.328 113.796 638.815 136.815 637.633 106.625C637.328 99.1051 633.447 92.0371 628.453 86.8411C622.739 80.8761 616.511 77.9571 611.891 70.8751C606.245 62.3271 599.933 54.3601 593.036 47.0751C578.921 31.897 562.694 18.0814 543.749 12.6905C530.461 8.91485 508.55 11.5128 503.468 28.5591C496.063 53.3731 534.779 55.3041 547.074 63.3691C558.741 71.0001 565.977 84.9491 575.533 95.7871C578.551 99.2041 581.83 102.31 585.327 105.067Z" fill="url(#paint2_linear)"/>
<path opacity="0.62" d="M391.326 88.136C414.172 99.653 431.942 117.965 453.021 132.271C488.114 156.085 534.237 158.415 573.715 173.992C613.97 189.887 645.329 216.626 661.358 257.068C682.063 309.268 687.839 372.576 676.785 428.352C664.608 489.749 629.38 532.304 575.791 562.648C522.234 592.973 461.785 609.44 400.853 616C394.973 616.639 389.095 617.159 383.188 617.583C250.502 627.018 70.77 591.83 16.2711 452.187C15.7718 450.911 15.2898 449.634 14.8054 448.339C9.11171 432.756 5.30411 416.548 3.46381 400.061C-3.20569 341.62 2.83111 276.24 19.7976 219.938C31.207 182.035 58.933 148.805 88.847 124.466C130.875 90.271 184.128 78.769 237.404 71.518C276.855 66.15 321.363 62.224 359.831 74.937C370.644 78.544 381.172 82.956 391.326 88.136Z" fill="url(#paint3_linear)"/>
</g>
<path d="M317.175 301.624C318.776 305.434 323.162 307.225 326.972 305.624L342.662 299.032C350.649 295.676 359.309 294.191 367.952 294.793C370.529 294.973 373.197 294.485 375.706 293.228C382.353 289.897 385.561 282.005 383.123 274.981C380.262 266.734 371.098 262.735 363.177 266.063C361.032 266.964 359.206 268.307 357.763 269.942C351.971 276.503 344.931 281.845 336.862 285.236L321.175 291.827C317.365 293.427 315.574 297.814 317.175 301.624Z" fill="#FB4C47"/>
<path d="M242.515 385.692C239.352 384.4 235.741 385.918 234.449 389.081L229.13 402.107C226.423 408.739 222.228 414.669 216.824 419.37C215.212 420.771 213.938 422.616 213.206 424.818C211.267 430.651 214.005 437.14 219.537 439.822C226.031 442.97 233.726 439.951 236.411 433.375C237.139 431.594 237.42 429.742 237.309 427.942C236.859 420.72 237.852 413.482 240.587 406.783L245.905 393.758C247.196 390.595 245.678 386.983 242.515 385.692Z" fill="#C63F3B"/>
<path d="M290.488 268.204C293.798 269.556 297.577 267.968 298.929 264.658L304.494 251.027C307.328 244.087 311.717 237.882 317.372 232.963C319.058 231.496 320.392 229.565 321.158 227.262C323.187 221.157 320.321 214.367 314.533 211.561C307.738 208.267 299.684 211.426 296.875 218.307C296.114 220.171 295.819 222.109 295.936 223.992C296.406 231.55 295.368 239.124 292.506 246.135L286.941 259.764C285.59 263.074 287.178 266.853 290.488 268.204Z" fill="#C63F3B"/>
<path d="M288.948 370.773C285.138 372.374 283.346 376.76 284.947 380.571L291.539 396.261C294.895 404.248 296.38 412.908 295.778 421.551C295.599 424.127 296.087 426.795 297.343 429.304C300.674 435.952 308.566 439.159 315.59 436.722C323.837 433.86 327.836 424.696 324.508 416.776C323.607 414.63 322.264 412.805 320.629 411.362C314.068 405.57 308.726 398.53 305.336 390.461L298.745 374.774C297.144 370.964 292.758 369.173 288.948 370.773Z" fill="#FB4C47"/>
<path d="M320.627 411.363C314.066 405.57 308.723 398.531 305.333 390.462L298.742 374.774C297.141 370.964 292.755 369.173 288.944 370.774C285.134 372.375 283.343 376.761 284.944 380.571L291.535 396.259C294.926 404.328 300.268 411.367 306.829 417.16C308.464 418.603 309.807 420.428 310.708 422.573C312.852 427.676 311.951 433.293 308.837 437.41C311.059 437.698 313.367 437.493 315.588 436.723C323.834 433.861 327.834 424.697 324.506 416.776C323.605 414.631 322.262 412.806 320.627 411.363Z" fill="#C63F3B"/>
<path d="M205.029 315.223C217.476 309.994 223.326 295.665 218.097 283.218C212.867 270.772 198.538 264.921 186.092 270.151C173.645 275.38 167.795 289.709 173.024 302.156C178.254 314.602 192.583 320.453 205.029 315.223Z" fill="#FF8F8C"/>
<path d="M186.097 270.15C183.69 271.161 181.533 272.516 179.652 274.129C189.947 273.232 200.086 278.976 204.304 289.015C208.522 299.054 205.528 310.316 197.682 317.041C200.15 316.826 202.627 316.234 205.034 315.223C217.481 309.993 223.331 295.664 218.102 283.218C212.872 270.771 198.543 264.921 186.097 270.15Z" fill="#FB4C47"/>
<path d="M299.405 395.668C340.046 378.593 359.149 331.805 342.074 291.164C324.999 250.524 278.211 231.42 237.57 248.496C196.929 265.571 177.826 312.359 194.901 353C211.977 393.64 258.765 412.744 299.405 395.668Z" fill="#FB4C47"/>
<path d="M237.57 248.495C235.244 249.473 232.991 250.552 230.808 251.718C269.675 239.481 312.18 258.647 328.277 296.961C344.375 335.274 328.315 379.047 292.371 398.242C294.731 397.498 297.079 396.645 299.406 395.668C340.047 378.592 359.15 331.804 342.075 291.163C325 250.523 278.211 231.42 237.57 248.495Z" fill="#C63F3B"/>
<path d="M291.796 300.281C300.051 296.812 303.932 287.309 300.463 279.053C296.995 270.798 287.491 266.918 279.236 270.386C270.98 273.855 267.1 283.359 270.569 291.614C274.037 299.869 283.541 303.749 291.796 300.281Z" fill="#C63F3B"/>
<path d="M279.234 270.387C276.745 271.432 274.657 273.03 273.045 274.974C278.874 275.458 284.242 279.085 286.664 284.851C289.087 290.617 287.921 296.989 284.186 301.491C286.703 301.7 289.305 301.327 291.795 300.281C300.05 296.813 303.93 287.309 300.462 279.054C296.993 270.798 287.49 266.918 279.234 270.387Z" fill="white"/>
<path d="M258.514 371.998C264.103 369.651 266.729 363.217 264.381 357.629C262.033 352.041 255.6 349.414 250.012 351.762C244.423 354.11 241.797 360.543 244.145 366.131C246.493 371.72 252.926 374.346 258.514 371.998Z" fill="white"/>
<path d="M347.278 369.421C354.898 366.22 358.48 357.447 355.278 349.827C352.076 342.206 343.304 338.624 335.683 341.826C328.063 345.028 324.481 353.801 327.683 361.421C330.885 369.041 339.657 372.623 347.278 369.421Z" fill="#FB4C47"/>
<path d="M335.683 341.827C333.169 342.883 331.097 344.548 329.561 346.576C334.686 347.229 339.334 350.518 341.48 355.625C343.625 360.731 342.721 366.352 339.601 370.471C342.124 370.793 344.763 370.479 347.277 369.423C354.898 366.221 358.479 357.448 355.278 349.828C352.076 342.208 343.303 338.625 335.683 341.827Z" fill="#C63F3B"/>
<path d="M219.791 342.54C221.392 346.35 219.602 350.736 215.791 352.337L200.102 358.929C192.114 362.285 184.993 367.432 179.373 374.026C177.698 375.992 175.482 377.556 172.828 378.468C165.797 380.885 157.915 377.652 154.604 370.994C150.717 363.179 154.275 353.834 162.195 350.506C164.341 349.605 166.578 349.241 168.755 349.355C177.495 349.81 186.238 348.521 194.307 345.131L209.995 338.54C213.804 336.939 218.191 338.73 219.791 342.54Z" fill="#C63F3B"/>
<path d="M248.035 273.389C251.845 271.788 253.637 267.402 252.036 263.591L245.443 247.902C242.088 239.914 240.603 231.254 241.205 222.612C241.384 220.035 240.896 217.367 239.639 214.858C236.309 208.211 228.417 205.003 221.392 207.44C213.146 210.302 209.146 219.466 212.474 227.387C213.376 229.532 214.719 231.357 216.354 232.8C222.915 238.593 228.257 245.632 231.647 253.701L238.239 269.389C239.839 273.199 244.225 274.99 248.035 273.389Z" fill="#FB4C47"/>
<path d="M239.64 214.858C236.31 208.21 228.418 205.003 221.393 207.44C218.459 208.458 216.067 210.276 214.347 212.55C219.154 213.174 223.565 216.11 225.843 220.655C227.099 223.164 227.588 225.832 227.408 228.409C226.806 237.051 228.291 245.712 231.647 253.699L238.239 269.389C239.839 273.198 244.226 274.99 248.036 273.389C251.847 271.788 253.637 267.402 252.036 263.591L245.444 247.902C242.088 239.914 240.604 231.254 241.206 222.612C241.385 220.035 240.898 217.367 239.64 214.858Z" fill="#C63F3B"/>
<path d="M364.738 266.452C362.578 267.313 360.729 268.621 359.257 270.229C358.997 270.513 358.731 270.792 358.465 271.071C363.903 271.84 368.756 275.584 370.612 281.269C372.2 286.131 371.107 291.354 368.087 295.184C368.385 295.205 368.684 295.223 368.982 295.249C371.554 295.475 374.229 295.037 376.759 293.827C383.463 290.621 386.813 282.793 384.506 275.729C381.798 267.436 372.714 263.271 364.738 266.452Z" fill="#C63F3B"/>
<g opacity="0.63">
<path opacity="0.63" d="M423.882 441.024C425.098 442.741 427.475 443.147 429.192 441.931L436.261 436.924C439.86 434.375 444 432.682 448.361 432.028C449.661 431.833 450.933 431.296 452.041 430.394C454.977 428.006 455.7 423.73 453.714 420.509C451.382 416.727 446.387 415.75 442.818 418.278C441.852 418.962 441.093 419.831 440.556 420.803C438.402 424.702 435.493 428.134 431.857 430.709L424.789 435.715C423.072 436.93 422.666 439.308 423.882 441.024Z" fill="#FFC700"/>
<path opacity="0.63" d="M390.189 481.854C388.475 481.561 386.848 482.714 386.555 484.428L385.349 491.488C384.735 495.082 383.305 498.491 381.138 501.424C380.492 502.298 380.062 503.355 379.942 504.53C379.622 507.642 381.698 510.565 384.743 511.287C388.317 512.135 391.808 509.786 392.417 506.222C392.582 505.257 392.517 504.305 392.263 503.423C391.243 499.884 390.938 496.178 391.558 492.547L392.764 485.488C393.056 483.774 391.903 482.147 390.189 481.854Z" fill="#D09700"/>
<path opacity="0.63" d="M401.068 418.179C402.862 418.485 404.565 417.279 404.871 415.485L406.133 408.098C406.775 404.337 408.272 400.769 410.539 397.701C411.215 396.786 411.665 395.679 411.791 394.45C412.126 391.193 409.953 388.135 406.767 387.379C403.027 386.492 399.374 388.95 398.737 392.68C398.564 393.69 398.632 394.685 398.897 395.608C399.965 399.312 400.284 403.19 399.636 406.989L398.374 414.376C398.068 416.17 399.274 417.872 401.068 418.179Z" fill="#D09700"/>
<path opacity="0.63" d="M411.613 469.32C409.897 470.536 409.49 472.913 410.706 474.63L415.713 481.699C418.262 485.298 419.955 489.438 420.61 493.799C420.805 495.099 421.342 496.371 422.243 497.479C424.632 500.415 428.907 501.138 432.129 499.152C435.911 496.82 436.888 491.825 434.36 488.256C433.675 487.29 432.807 486.531 431.835 485.994C427.936 483.84 424.504 480.931 421.929 477.295L416.923 470.227C415.707 468.51 413.33 468.104 411.613 469.32Z" fill="#FFC700"/>
<path opacity="0.63" d="M431.835 485.992C427.935 483.838 424.504 480.929 421.929 477.293L416.923 470.225C415.707 468.508 413.329 468.102 411.613 469.318C409.896 470.534 409.49 472.911 410.706 474.628L415.712 481.697C418.287 485.332 421.718 488.241 425.618 490.396C426.589 490.932 427.458 491.691 428.143 492.658C429.771 494.957 429.943 497.847 428.85 500.237C429.986 500.135 431.11 499.779 432.129 499.15C435.911 496.819 436.887 491.824 434.36 488.255C433.675 487.288 432.806 486.529 431.835 485.992Z" fill="#D09700"/>
<path opacity="0.63" d="M363.789 450.973C369.397 447.001 370.723 439.236 366.751 433.628C362.779 428.02 355.014 426.693 349.406 430.665C343.798 434.637 342.471 442.403 346.443 448.011C350.415 453.619 358.181 454.945 363.789 450.973Z" fill="#D09700"/>
<path opacity="0.63" d="M349.406 430.665C348.322 431.433 347.4 432.344 346.642 433.353C351.659 431.772 357.331 433.507 360.535 438.03C363.739 442.554 363.493 448.48 360.336 452.688C361.539 452.309 362.705 451.741 363.789 450.973C369.397 447.001 370.724 439.235 366.752 433.627C362.78 428.019 355.014 426.693 349.406 430.665Z" fill="#FFC700"/>
<path opacity="0.63" d="M419.556 480.537C437.867 467.568 442.198 442.21 429.229 423.899C416.26 405.588 390.902 401.257 372.591 414.226C354.28 427.195 349.949 452.553 362.918 470.864C375.887 489.175 401.244 493.506 419.556 480.537Z" fill="#FFC700"/>
<path opacity="0.63" d="M372.597 414.225C371.549 414.968 370.549 415.753 369.593 416.573C387.556 406.204 410.793 411.039 423.019 428.301C435.245 445.564 432.094 469.088 416.351 482.592C417.441 481.962 418.514 481.279 419.562 480.537C437.874 467.567 442.205 442.21 429.236 423.898C416.267 405.587 390.909 401.256 372.597 414.225Z" fill="#D09700"/>
<path opacity="0.63" d="M400.679 436.759C402.033 435.8 402.353 433.925 401.394 432.57C400.435 431.216 398.56 430.896 397.206 431.855C395.851 432.814 395.531 434.689 396.49 436.044C397.449 437.398 399.325 437.718 400.679 436.759Z" fill="white"/>
<path opacity="0.63" d="M396.622 473.287C399.14 471.503 399.736 468.016 397.953 465.498C396.169 462.98 392.682 462.384 390.164 464.167C387.646 465.951 387.05 469.438 388.834 471.956C390.617 474.474 394.104 475.07 396.622 473.287Z" fill="white"/>
<path opacity="0.63" d="M378.987 449.846C382.842 447.116 383.754 441.777 381.023 437.922C378.293 434.067 372.954 433.155 369.099 435.885C365.243 438.616 364.332 443.954 367.062 447.81C369.793 451.665 375.131 452.577 378.987 449.846Z" fill="white"/>
<path opacity="0.63" d="M440.446 462.213C443.88 459.781 444.692 455.026 442.26 451.593C439.828 448.159 435.073 447.347 431.64 449.779C428.206 452.211 427.394 456.965 429.826 460.399C432.258 463.832 437.013 464.644 440.446 462.213Z" fill="#FFC700"/>
<path opacity="0.63" d="M431.641 449.779C430.509 450.581 429.663 451.637 429.123 452.815C431.742 452.574 434.415 453.695 436.045 455.996C437.674 458.297 437.845 461.19 436.749 463.581C438.038 463.463 439.315 463.016 440.448 462.213C443.882 459.781 444.693 455.027 442.262 451.593C439.83 448.16 435.075 447.347 431.641 449.779Z" fill="#D09700"/>
<path opacity="0.63" d="M374.137 462.919C375.353 464.636 374.947 467.013 373.23 468.229L366.161 473.236C362.562 475.785 359.591 479.128 357.526 483.025C356.911 484.186 355.982 485.208 354.764 485.954C351.536 487.931 347.263 487.194 344.883 484.251C342.09 480.796 342.826 475.76 346.395 473.232C347.362 472.548 348.433 472.12 349.528 471.936C353.921 471.198 358.124 469.593 361.759 467.018L368.828 462.012C370.544 460.796 372.921 461.202 374.137 462.919Z" fill="#D09700"/>
<path opacity="0.63" d="M380.539 425.443C382.255 424.227 382.662 421.85 381.446 420.133L376.439 413.064C373.89 409.465 372.197 405.325 371.542 400.964C371.347 399.664 370.81 398.392 369.909 397.284C367.521 394.348 363.245 393.625 360.023 395.611C356.241 397.943 355.265 402.938 357.792 406.507C358.477 407.473 359.346 408.232 360.317 408.769C364.217 410.923 367.648 413.832 370.223 417.468L375.229 424.536C376.445 426.253 378.822 426.659 380.539 425.443Z" fill="#FFC700"/>
<path opacity="0.63" d="M369.907 397.284C367.518 394.348 363.243 393.625 360.021 395.611C358.675 396.441 357.687 397.608 357.083 398.928C359.541 398.707 362.057 399.68 363.69 401.687C364.591 402.795 365.128 404.067 365.323 405.367C365.978 409.729 367.671 413.868 370.22 417.467L375.227 424.536C376.442 426.253 378.82 426.659 380.537 425.443C382.253 424.227 382.659 421.85 381.444 420.133L376.437 413.064C373.888 409.465 372.195 405.326 371.54 400.964C371.345 399.664 370.808 398.392 369.907 397.284Z" fill="#D09700"/>
</g>
<path d="M475.172 357.391C472.815 356.841 470.458 358.305 469.907 360.662L467.64 370.369C466.486 375.31 464.213 379.927 460.957 383.819C459.986 384.979 459.3 386.412 459.033 388.034C458.328 392.332 460.968 396.566 465.137 397.824C470.031 399.302 475.078 396.331 476.223 391.431C476.533 390.104 476.523 388.776 476.244 387.53C475.124 382.528 475.01 377.353 476.176 372.361L478.443 362.656C478.994 360.299 477.529 357.942 475.172 357.391Z" fill="#1DB776"/>
<path d="M460.973 293.088C462.672 292.031 463.194 289.797 462.138 288.097L457.789 281.097C455.575 277.534 454.205 273.506 453.833 269.327C453.722 268.081 453.286 266.842 452.493 265.738C450.393 262.814 446.375 261.882 443.201 263.583C439.476 265.58 438.262 270.268 440.458 273.802C441.053 274.759 441.834 275.529 442.726 276.095C446.305 278.364 449.397 281.323 451.633 284.923L455.982 291.922C457.039 293.622 459.273 294.144 460.973 293.088Z" fill="#128E5A"/>
<path d="M500.196 356.223C498.417 357.328 497.871 359.666 498.976 361.445L503.527 368.77C505.844 372.499 507.277 376.714 507.666 381.087C507.782 382.391 508.239 383.687 509.069 384.842C511.266 387.903 515.471 388.878 518.792 387.098C522.69 385.007 523.96 380.102 521.663 376.405C521.04 375.403 520.222 374.597 519.289 374.005C515.544 371.63 512.309 368.534 509.968 364.767L505.418 357.443C504.312 355.664 501.974 355.118 500.196 356.223Z" fill="#128E5A"/>
<path d="M452.083 320.233C452.633 317.875 451.169 315.518 448.812 314.968L439.105 312.7C434.164 311.546 429.547 309.273 425.655 306.017C424.495 305.046 423.062 304.36 421.44 304.094C417.143 303.388 412.909 306.028 411.65 310.197C410.172 315.091 413.143 320.138 418.043 321.283C419.371 321.593 420.698 321.583 421.944 321.304C426.946 320.184 432.121 320.07 437.113 321.236L446.818 323.503C449.175 324.054 451.532 322.59 452.083 320.233Z" fill="#1DB776"/>
<path d="M421.946 321.304C426.948 320.184 432.123 320.071 437.115 321.237L446.82 323.504C449.177 324.054 451.534 322.59 452.085 320.233C452.635 317.875 451.171 315.518 448.814 314.968L439.109 312.701C434.117 311.535 428.942 311.648 423.94 312.768C422.693 313.048 421.366 313.057 420.039 312.747C416.882 312.01 414.528 309.652 413.646 306.759C412.746 307.714 412.05 308.879 411.652 310.197C410.174 315.092 413.145 320.138 418.045 321.283C419.372 321.593 420.699 321.584 421.946 321.304Z" fill="#128E5A"/>
<path d="M507.274 299.534C505.475 307.234 510.259 314.934 517.959 316.733C525.659 318.532 533.359 313.748 535.158 306.047C536.957 298.347 532.173 290.647 524.473 288.849C516.772 287.05 509.072 291.834 507.274 299.534Z" fill="#128E5A"/>
<path d="M535.16 306.049C535.508 304.56 535.607 303.072 535.489 301.625C532.375 306.816 526.166 309.649 519.955 308.198C513.744 306.748 509.433 301.457 508.941 295.424C508.194 296.668 507.624 298.046 507.276 299.536C505.477 307.236 510.261 314.936 517.961 316.735C525.661 318.533 533.362 313.749 535.16 306.049Z" fill="#1DB776"/>
<path d="M436.681 316.636C430.808 341.779 446.429 366.922 471.572 372.795C496.714 378.668 521.857 363.047 527.73 337.904C533.603 312.762 517.982 287.619 492.839 281.746C467.697 275.873 442.554 291.494 436.681 316.636Z" fill="#1DB776"/>
<path d="M527.739 337.903C528.075 336.464 528.337 335.024 528.535 333.588C520.977 356.226 497.277 369.795 473.574 364.258C449.871 358.721 434.634 336.058 437.887 312.415C437.428 313.789 437.026 315.196 436.69 316.636C430.817 341.778 446.438 366.921 471.58 372.794C496.723 378.667 521.866 363.046 527.739 337.903Z" fill="#128E5A"/>
<path d="M484.529 345.818C483.336 350.925 486.509 356.032 491.616 357.225C496.723 358.418 501.83 355.245 503.023 350.138C504.216 345.031 501.043 339.923 495.936 338.73C490.829 337.537 485.722 340.71 484.529 345.818Z" fill="#128E5A"/>
<path d="M503.033 350.136C503.393 348.596 503.353 347.057 502.985 345.624C500.752 348.222 497.187 349.521 493.62 348.688C490.053 347.854 487.431 345.111 486.58 341.792C485.616 342.914 484.898 344.276 484.538 345.816C483.346 350.923 486.519 356.031 491.626 357.224C496.733 358.417 501.84 355.244 503.033 350.136Z" fill="white"/>
<path d="M461.964 305.38C461.157 308.837 463.305 312.294 466.762 313.102C470.219 313.91 473.677 311.762 474.484 308.304C475.292 304.847 473.144 301.39 469.686 300.582C466.229 299.774 462.772 301.922 461.964 305.38Z" fill="white"/>
<path d="M432.671 348.36C431.57 353.075 434.499 357.79 439.214 358.891C443.929 359.992 448.644 357.063 449.745 352.348C450.846 347.633 447.917 342.918 443.202 341.817C438.487 340.716 433.772 343.645 432.671 348.36Z" fill="#1DB776"/>
<path d="M449.749 352.347C450.112 350.791 450.034 349.236 449.601 347.811C447.529 350.017 444.371 351.091 441.212 350.353C438.052 349.615 435.697 347.253 434.817 344.357C433.796 345.443 433.038 346.803 432.674 348.358C431.573 353.073 434.503 357.788 439.217 358.89C443.932 359.991 448.648 357.062 449.749 352.347Z" fill="#128E5A"/>
<path d="M489.244 297.146C486.887 296.596 485.422 294.239 485.973 291.882L488.24 282.175C489.394 277.234 489.402 272.087 488.207 267.156C487.85 265.686 487.87 264.097 488.35 262.525C489.621 258.36 493.863 255.733 498.158 256.452C503.201 257.295 506.41 262.194 505.265 267.095C504.955 268.422 504.358 269.608 503.556 270.601C500.336 274.59 497.941 279.179 496.775 284.17L494.508 293.876C493.958 296.232 491.601 297.697 489.244 297.146Z" fill="#128E5A"/>
<path d="M512.332 334.307C511.781 336.664 513.246 339.021 515.603 339.572L525.31 341.839C530.251 342.994 534.868 345.267 538.76 348.523C539.92 349.494 541.353 350.18 542.975 350.446C547.272 351.152 551.506 348.512 552.765 344.343C554.242 339.448 551.272 334.401 546.372 333.257C545.044 332.947 543.717 332.956 542.471 333.235C537.468 334.356 532.294 334.469 527.302 333.303L517.597 331.036C515.24 330.486 512.883 331.95 512.332 334.307Z" fill="#1DB776"/>
<path d="M542.973 350.444C547.271 351.15 551.505 348.51 552.764 344.341C553.289 342.6 553.25 340.84 552.763 339.243C550.814 341.308 547.906 342.391 544.967 341.908C543.346 341.642 541.912 340.956 540.752 339.985C536.861 336.729 532.243 334.456 527.302 333.301L517.596 331.034C515.239 330.484 512.881 331.948 512.331 334.305C511.78 336.663 513.244 339.02 515.602 339.57L525.308 341.837C530.25 342.992 534.867 345.265 538.758 348.521C539.919 349.492 541.352 350.178 542.973 350.444Z" fill="#128E5A"/>
<path d="M476.221 391.437C476.53 390.11 476.521 388.784 476.242 387.538C476.193 387.318 476.148 387.096 476.102 386.875C473.911 389.23 470.486 390.308 467.132 389.295C464.264 388.429 462.121 386.154 461.292 383.42C461.182 383.556 461.074 383.694 460.961 383.828C459.991 384.988 459.305 386.42 459.039 388.041C458.334 392.337 460.972 396.569 465.14 397.827C470.032 399.304 475.076 396.335 476.221 391.437Z" fill="#128E5A"/>
<defs>
<linearGradient id="paint0_linear" x1="11.0593" y1="514.687" x2="60.0758" y2="650.827" gradientUnits="userSpaceOnUse">
<stop stop-color="#FFD8D8"/>
<stop offset="1" stop-color="#FFF8F8"/>
</linearGradient>
<linearGradient id="paint1_linear" x1="657.47" y1="169.693" x2="220.853" y2="-67.6552" gradientUnits="userSpaceOnUse">
<stop stop-color="#FFF8F8"/>
<stop offset="1" stop-color="#FFCFCF"/>
</linearGradient>
<linearGradient id="paint2_linear" x1="638.658" y1="106.027" x2="480.938" y2="50.5051" gradientUnits="userSpaceOnUse">
<stop stop-color="#FFD7D7"/>
<stop offset="1" stop-color="#FFF9F9"/>
</linearGradient>
<linearGradient id="paint3_linear" x1="632.235" y1="540.48" x2="-7.93315" y2="223.53" gradientUnits="userSpaceOnUse">
<stop stop-color="#FFCFCF"/>
<stop offset="1" stop-color="#FFF8F8"/>
</linearGradient>
</defs>
</svg>
