<svg width="162" height="471" viewBox="0 0 162 471" fill="none" opacity=".3" xmlns="http://www.w3.org/2000/svg">
<path opacity="0.5" d="M304.692 301.014C299.635 300.865 295.277 304.803 294.039 310.217C286.211 310.833 277.267 311.043 267.448 310.415C261.988 310.056 256.796 309.478 251.94 308.761C251.967 307.814 251.981 306.857 251.981 305.9C251.981 301.245 251.645 296.669 251.026 292.192C253.501 290.267 256.594 288.244 260.347 286.51C266.843 283.479 272.923 282.403 277.617 282.093C279.917 287.406 285.203 290.498 290.26 289.151C295.963 287.637 299.231 281.086 297.536 274.517C295.855 267.946 289.883 263.839 284.18 265.354C278.989 266.74 275.814 272.303 276.568 278.255C272.465 280.628 266.359 283.199 258.8 283.389C255.074 283.489 251.806 282.98 249.156 282.323C247.475 275.373 245.067 268.714 241.987 262.434C245.242 259.443 249.089 256.272 253.595 253.211C260.118 248.766 266.413 245.586 271.941 243.302C275.545 247.59 281.289 249.016 285.727 246.404C290.825 243.412 292.25 236.204 288.928 230.322C285.606 224.441 278.76 222.108 273.662 225.109C269.237 227.71 267.569 233.492 269.399 238.817C264.651 242.564 258.813 246.522 251.806 250.052C247.045 252.464 242.485 254.299 238.356 255.694C234.98 249.942 231.039 244.578 226.601 239.683C228.309 233.383 231.187 226.026 236.096 218.648C240.71 211.75 245.821 206.715 250.165 203.176C254.953 206.197 260.979 205.728 264.409 201.75C268.309 197.244 267.422 189.957 262.405 185.472C257.415 180.976 250.205 180.984 246.318 185.491C242.889 189.469 243.158 195.601 246.722 200.075C243.911 204.801 239.661 210.663 233.42 216.246C226.533 222.407 219.62 226.096 214.348 228.289C208.349 223.613 201.812 219.645 194.832 216.505C195.84 213.643 197.185 210.763 198.947 207.932C200.359 205.688 201.879 203.714 203.413 201.99C208.725 204.193 214.684 202.608 217.36 197.993C220.373 192.838 218.167 185.839 212.438 182.371C206.708 178.901 199.633 180.267 196.62 185.431C193.984 189.968 195.37 195.928 199.633 199.657C198.746 202.05 197.669 204.533 196.378 207.063C194.912 209.975 193.325 212.658 191.644 215.139C190.931 214.85 190.232 214.571 189.519 214.312C181.207 211.141 172.343 209.139 163.103 208.46C161.583 204.293 160.265 199.675 159.337 194.603C157.454 184.253 157.803 175.246 158.678 168.481C164.112 167.42 168.173 163.074 168.173 157.866C168.173 151.865 162.78 147 156.122 147C149.451 147 144.044 151.865 144.044 157.866C144.044 163.163 148.254 167.569 153.822 168.531C155.033 175.199 155.826 184.531 153.97 195.35C153.136 200.112 151.912 204.452 150.487 208.381C141.623 208.889 133.109 210.631 125.066 213.439C123.95 211.627 122.941 209.724 122.04 207.48C120.264 203.036 119.498 198.871 119.188 195.405C124.393 192.642 127.07 186.848 125.241 181.723C123.223 176.086 116.512 173.403 110.244 175.734C103.99 178.064 100.546 184.522 102.577 190.16C104.326 195.023 109.558 197.679 114.978 196.819C116.565 200.138 118.085 203.964 119.269 208.311C119.915 210.612 120.385 212.863 120.749 215.065C113.445 218.013 106.599 221.858 100.304 226.46C96.9957 224.019 93.6062 221.185 90.2571 217.865C82.5503 210.22 77.4122 202.379 74.0363 196.1C77.7754 191.883 78.4345 185.846 75.3006 181.687C71.7095 176.927 64.5137 176.426 59.2278 180.564C53.9554 184.704 52.5835 191.916 56.1612 196.674C59.3489 200.878 65.3207 201.753 70.3241 199.044C75.193 203.495 81.5281 210.515 86.4239 220.607C88.67 225.222 90.2302 229.71 91.3332 233.896C90.3244 234.841 89.3021 235.817 88.3203 236.813C83.411 241.834 79.0128 247.394 75.2468 253.41C73.0275 252.759 70.7276 251.971 68.3738 251.006C60.7207 247.865 54.7893 243.861 50.4852 240.373C52.3144 234.947 50.5256 229.093 45.9795 226.555C40.8281 223.669 34.0492 226.159 30.8481 232.115C27.6335 238.068 29.2207 245.235 34.399 248.119C38.9317 250.655 44.7152 249.035 48.2256 244.56C53.4443 246.4 59.9541 249.351 66.6657 254.197C68.6697 255.645 70.499 257.133 72.2071 258.63C66.8943 268.388 63.1821 279.172 61.4201 290.621C56.8336 291.02 51.8841 291.212 46.5713 291.044C38.9855 290.807 32.1393 289.901 26.154 288.722C26.0195 282.735 22.0921 277.723 16.7659 277.153C10.9016 276.525 5.58887 281.493 4.88947 288.247C4.20351 295.001 8.38649 300.983 14.2373 301.608C19.4559 302.166 24.2172 298.289 25.7102 292.67C31.8434 292.796 38.7298 293.356 46.1946 294.665C51.3729 295.571 56.1477 296.726 60.5728 298.011C60.3576 300.611 60.2635 303.241 60.2635 305.9C60.2635 312.215 60.8418 318.391 61.9717 324.378C56.8875 327.804 49.8934 331.689 40.976 334.417C33.1615 336.809 26.1272 337.623 20.5185 337.799C18.501 332.474 13.4975 329.153 8.42681 330.149C2.65673 331.287 -1.01512 337.614 0.249188 344.281C1.5135 350.95 7.22975 355.433 12.9998 354.295C18.0033 353.311 21.4062 348.448 21.4197 342.842C27.1629 340.939 33.9416 339.153 41.6485 337.991C50.4987 336.655 58.4477 336.463 65.1458 336.76C67.8224 345.023 71.5885 352.784 76.2287 359.889C74.0364 361.656 71.6019 363.4 68.8446 365.03C63.5856 368.152 58.5418 370.095 54.1571 371.351C51.1981 366.527 45.6567 364.262 40.8684 366.233C35.4211 368.487 33.0136 375.415 35.5153 381.706C37.089 385.654 40.2228 388.425 43.6929 389.373C45.7374 389.94 47.9029 389.871 49.9338 389.034C50.5256 388.784 51.1039 388.475 51.6285 388.106C55.6097 385.416 57.3044 379.84 55.6232 374.52C59.7658 372.342 64.6079 370.184 70.1762 368.405C73.7674 367.264 77.1837 366.431 80.3983 365.811C83.3304 369.677 86.5584 373.304 90.0151 376.651C90.3379 376.971 90.6741 377.29 90.9969 377.588C88.6566 382.912 85.1326 389.382 79.8198 395.941C74.6146 402.362 69.2077 407.037 64.6481 410.339C60.0886 407.037 54.1033 407.108 50.4314 410.806C46.235 415.023 46.6385 422.361 51.3326 427.196C55.9997 432.02 63.209 432.52 67.392 428.302C71.037 424.642 71.2118 418.623 68.1182 413.947C71.696 409.19 76.3632 403.828 82.3216 398.534C88.7373 392.852 95.0589 388.645 100.573 385.544C107.863 390.827 115.92 395.104 124.515 398.165C124.178 401.464 123.6 405.023 122.645 408.763C120.574 416.908 117.48 423.437 114.669 428.243C109.141 427.115 103.68 429.688 101.811 434.613C99.699 440.206 103.021 446.726 109.235 449.178C115.436 451.63 122.188 449.078 124.326 443.476C126.169 438.611 123.909 433.048 119.188 430.076C120.52 424.284 122.631 417.434 125.967 410.077C127.608 406.49 129.343 403.219 131.118 400.239C137.749 402.063 144.649 403.181 151.778 403.489C152.934 409.172 153.876 415.532 154.333 422.48C155.019 432.818 154.468 441.97 153.499 449.526C148.093 450.594 144.044 454.94 144.044 460.135C144.044 466.136 149.438 471 156.122 471C162.78 471 168.173 466.136 168.173 460.135C168.173 454.96 164.152 450.623 158.772 449.536C157.871 441.81 157.386 432.679 157.898 422.48C158.247 415.6 159.014 409.251 159.982 403.508C167.434 403.219 174.656 402.054 181.556 400.109C182.148 401.145 182.726 402.222 183.291 403.33C187.044 410.636 189.061 417.486 190.151 422.968C185.349 425.81 182.901 431.333 184.636 436.258C186.6 441.91 193.298 444.642 199.579 442.368C205.847 440.086 209.344 433.655 207.367 428.003C205.618 422.989 200.144 420.276 194.549 421.314C191.98 416.817 188.994 410.028 187.958 401.336C187.824 400.258 187.73 399.203 187.676 398.165C195.356 395.453 202.592 391.755 209.25 387.229C213.541 390.787 218.06 395.034 222.552 400.079C229.465 407.835 234.496 415.482 238.127 421.981C234.442 426.188 233.81 432.18 236.917 436.317C240.521 441.073 247.704 441.572 252.99 437.433C258.262 433.297 259.634 426.09 256.056 421.325C252.949 417.216 247.152 416.279 242.23 418.782C236.93 413.308 231.053 406.38 225.39 397.866C221.732 392.362 218.705 387.02 216.217 382.004C218.894 379.802 221.449 377.459 223.897 374.976C227.878 370.909 231.523 366.492 234.751 361.767C240.71 363.463 247.583 365.945 254.873 369.673C261.907 373.253 267.771 377.19 272.492 380.858C270.703 386.183 272.398 391.944 276.837 394.516C281.948 397.497 288.767 395.124 292.076 389.233C295.384 383.331 293.905 376.143 288.794 373.161C284.328 370.561 278.531 372.047 274.954 376.413C269.681 374.368 263.279 371.268 256.648 366.513C249.762 361.578 244.556 356.284 240.79 351.718C243.333 346.854 245.484 341.74 247.206 336.416C250.057 336.516 253.084 336.775 256.204 337.253C264.261 338.49 270.972 340.812 276.137 343.124C275.693 348.808 278.841 354.011 283.831 355.318C289.534 356.813 295.505 352.695 297.173 346.117C298.827 339.537 295.559 332.997 289.843 331.501C284.839 330.184 279.607 333.216 277.281 338.448C271.806 337.991 264.772 336.764 257.092 333.734C254.187 332.577 251.497 331.291 249.049 329.945C250.273 325.012 251.133 319.936 251.577 314.732C256.54 314.324 261.813 314.064 267.368 314.053C277.159 314.025 286.063 314.742 293.878 315.799C294.819 321.272 298.949 325.439 303.992 325.6C309.883 325.768 314.82 320.404 314.994 313.616C315.183 306.828 310.569 301.184 304.692 301.014Z" fill="#FF383D"/>
<path opacity="0.5" d="M125.811 62.2715C123.756 62.2111 121.985 63.8034 121.483 65.9922C118.302 66.2416 114.667 66.3263 110.677 66.0725C108.458 65.9273 106.349 65.6934 104.376 65.4035C104.387 65.0206 104.392 64.6337 104.392 64.2468C104.392 62.3646 104.256 60.5145 104.004 58.7044C105.01 57.9262 106.267 57.1081 107.792 56.407C110.432 55.1816 112.902 54.7465 114.809 54.6212C115.744 56.7695 117.892 58.0193 119.947 57.4751C122.264 56.8626 123.592 54.2139 122.904 51.5579C122.22 48.9014 119.794 47.2409 117.476 47.8533C115.367 48.4136 114.077 50.6628 114.383 53.0693C112.716 54.0287 110.235 55.0685 107.163 55.145C105.649 55.1855 104.321 54.9798 103.244 54.7143C102.561 51.9043 101.583 49.2118 100.331 46.6728C101.654 45.4634 103.217 44.1814 105.048 42.9438C107.699 41.1464 110.257 39.8606 112.503 38.9372C113.968 40.6709 116.301 41.2473 118.105 40.1914C120.176 38.9815 120.756 36.0673 119.406 33.689C118.056 31.3113 115.274 30.368 113.202 31.5812C111.404 32.6332 110.727 34.971 111.47 37.1237C109.541 38.639 107.169 40.2391 104.321 41.6663C102.386 42.6417 100.534 43.3833 98.8557 43.9475C97.4839 41.6219 95.8826 39.4532 94.079 37.474C94.7731 34.9266 95.9427 31.952 97.9376 28.969C99.8122 26.1801 101.889 24.1443 103.654 22.7133C105.6 23.9348 108.049 23.7453 109.442 22.1369C111.027 20.3151 110.667 17.3687 108.628 15.5552C106.6 13.7373 103.671 13.7406 102.091 15.5629C100.698 17.1714 100.807 19.6505 102.255 21.4595C101.113 23.3706 99.3859 25.7406 96.8499 27.998C94.0516 30.4888 91.2424 31.9803 89.0999 32.8671C86.6624 30.9765 84.0062 29.372 81.1696 28.1028C81.5795 26.9455 82.1261 25.781 82.842 24.6365C83.4159 23.7292 84.0335 22.9311 84.6566 22.2339C86.8154 23.1245 89.2366 22.4838 90.3242 20.6177C91.5485 18.5337 90.6521 15.7037 88.3238 14.3015C85.9956 12.8987 83.1208 13.4507 81.8965 15.5385C80.8253 17.3731 81.3883 19.783 83.1208 21.2905C82.7601 22.2582 82.3228 23.262 81.7982 24.2851C81.2024 25.4623 80.5575 26.547 79.8743 27.5502C79.5846 27.4332 79.3005 27.3207 79.0108 27.216C75.6332 25.934 72.0314 25.1242 68.2767 24.8499C67.6591 23.1649 67.1235 21.2977 66.7463 19.247C65.9812 15.0624 66.1233 11.4205 66.4786 8.6853C68.6866 8.25631 70.3371 6.49937 70.3371 4.39379C70.3371 1.9673 68.1455 0.000242728 65.4401 0.000242737C62.7293 0.000242746 60.5321 1.9673 60.5321 4.39379C60.5321 6.5354 62.2428 8.31673 64.5055 8.70581C64.9974 11.4017 65.3199 15.175 64.5657 19.5491C64.2268 21.4745 63.7294 23.2293 63.1501 24.8178C59.5484 25.0234 56.0888 25.7278 52.8204 26.8629C52.3668 26.1302 51.9569 25.3609 51.5907 24.4536C50.8693 22.6567 50.5577 20.9729 50.432 19.5713C52.5472 18.4545 53.6348 16.1116 52.8915 14.0393C52.0717 11.7602 49.3444 10.6756 46.7975 11.6178C44.2561 12.56 42.857 15.1711 43.6822 17.4507C44.3927 19.4171 46.5188 20.4907 48.7214 20.1432C49.3663 21.485 49.9839 23.0319 50.4649 24.7895C50.7272 25.72 50.9185 26.6301 51.0661 27.5203C48.0983 28.7124 45.3164 30.2671 42.7586 32.1277C41.4141 31.1406 40.0368 29.995 38.6759 28.6526C35.5442 25.5615 33.4564 22.3912 32.0846 19.8522C33.604 18.1474 33.8718 15.7065 32.5984 14.0249C31.1391 12.1006 28.2151 11.8977 26.0672 13.571C23.9247 15.2448 23.3673 18.1607 24.8211 20.0845C26.1164 21.7843 28.543 22.138 30.5761 21.0428C32.5546 22.8424 35.1289 25.6807 37.1183 29.7611C38.031 31.6272 38.665 33.4418 39.1132 35.1339C38.7033 35.5164 38.2879 35.911 37.8889 36.3133C35.894 38.3435 34.1068 40.5916 32.5765 43.0242C31.6747 42.7609 30.7401 42.4422 29.7837 42.052C26.6738 40.7822 24.2636 39.1633 22.5146 37.7528C23.2579 35.5591 22.531 33.1924 20.6837 32.1659C18.5905 30.9992 15.8359 32.0058 14.5351 34.414C13.2289 36.8211 13.8738 39.7187 15.978 40.8848C17.8199 41.9101 20.17 41.255 21.5965 39.446C23.717 40.1898 26.3623 41.383 29.0895 43.3423C29.9039 43.9276 30.6472 44.5295 31.3413 45.1347C29.1825 49.0799 27.674 53.4401 26.958 58.0692C25.0943 58.2305 23.0831 58.3081 20.9242 58.2404C17.8417 58.1446 15.0598 57.7782 12.6277 57.3016C12.573 54.8806 10.9771 52.8543 8.81279 52.6237C6.42987 52.3699 4.27103 54.3784 3.98683 57.1092C3.70809 59.84 5.40784 62.2588 7.7853 62.5115C9.90589 62.7371 11.8406 61.1697 12.4473 58.8978C14.9395 58.9488 17.7378 59.1749 20.7711 59.7042C22.8753 60.0706 24.8156 60.5378 26.6137 61.0571C26.5263 62.1085 26.488 63.1716 26.488 64.2468C26.488 66.8002 26.723 69.2971 27.1821 71.7181C25.1162 73.1031 22.2741 74.6739 18.6506 75.7768C15.4752 76.744 12.6168 77.0732 10.3377 77.1441C9.51786 74.9914 7.48469 73.6485 5.42423 74.0514C3.07956 74.5115 1.58751 77.0693 2.10126 79.7652C2.61501 82.4616 4.9378 84.274 7.28247 83.8139C9.31561 83.416 10.6984 81.4501 10.7039 79.1832C13.0376 78.4139 15.7921 77.6917 18.9238 77.2217C22.5201 76.6819 25.7502 76.6043 28.472 76.724C29.5596 80.065 31.0899 83.2032 32.9755 86.0758C32.0846 86.7902 31.0954 87.4952 29.9749 88.1542C27.838 89.4168 25.7884 90.2022 24.0067 90.7099C22.8043 88.7595 20.5525 87.8439 18.6069 88.6409C16.3934 89.552 15.4151 92.3532 16.4316 94.8966C17.0711 96.4929 18.3445 97.6136 19.7546 97.9966C20.5853 98.226 21.4653 98.1983 22.2906 97.8596C22.5311 97.7588 22.766 97.6335 22.9792 97.4844C24.597 96.397 25.2856 94.1423 24.6024 91.9913C26.2858 91.1106 28.2534 90.2382 30.516 89.5188C31.9753 89.0577 33.3635 88.7207 34.6698 88.4702C35.8612 90.0331 37.1729 91.4997 38.5776 92.8531C38.7087 92.9823 38.8453 93.1114 38.9765 93.2317C38.0255 95.3844 36.5936 98.0004 34.4347 100.652C32.3196 103.249 30.1225 105.139 28.2697 106.474C26.4169 105.139 23.9848 105.167 22.4928 106.663C20.7875 108.368 20.9515 111.334 22.8589 113.289C24.7555 115.24 27.6849 115.442 29.3847 113.737C30.8658 112.257 30.9368 109.823 29.6798 107.933C31.1336 106.009 33.0301 103.841 35.4513 101.701C38.0583 99.4032 40.6271 97.7022 42.8679 96.4485C45.8302 98.5846 49.104 100.314 52.5964 101.551C52.4597 102.886 52.2247 104.324 51.8367 105.836C50.995 109.13 49.7379 111.77 48.5957 113.713C46.3494 113.257 44.1304 114.297 43.3707 116.288C42.5126 118.55 43.8626 121.186 46.3876 122.177C48.9072 123.169 51.6508 122.137 52.5198 119.872C53.2686 117.905 52.3504 115.655 50.432 114.454C50.9731 112.112 51.8312 109.343 53.1866 106.368C53.8534 104.917 54.5584 103.595 55.2799 102.39C57.9743 103.128 60.7781 103.579 63.6748 103.704C64.1448 106.002 64.5274 108.573 64.7132 111.383C64.9919 115.562 64.7679 119.263 64.3744 122.318C62.1773 122.75 60.5321 124.507 60.5321 126.607C60.5321 129.034 62.7238 131 65.4401 131C68.1455 131 70.3371 129.034 70.3371 126.607C70.3371 124.515 68.703 122.761 66.5168 122.322C66.1506 119.198 65.9538 115.506 66.1615 111.383C66.3036 108.601 66.6152 106.034 67.0087 103.712C70.0365 103.595 72.9715 103.124 75.7752 102.337C76.0157 102.756 76.2507 103.192 76.4803 103.64C78.0052 106.594 78.825 109.364 79.2677 111.58C77.3165 112.729 76.3218 114.962 77.0268 116.953C77.8248 119.239 80.5466 120.343 83.0989 119.424C85.6458 118.501 87.0668 115.901 86.2634 113.616C85.5529 111.588 83.3284 110.491 81.0548 110.911C80.0109 109.093 78.7976 106.348 78.3768 102.833C78.3221 102.398 78.2839 101.971 78.262 101.551C81.3828 100.455 84.3232 98.9598 87.0286 97.1297C88.772 98.5685 90.6084 100.286 92.4339 102.325C95.2431 105.461 97.2871 108.553 98.7628 111.181C97.2653 112.882 97.0084 115.305 98.2709 116.977C99.7357 118.9 102.654 119.102 104.802 117.428C106.945 115.756 107.502 112.842 106.048 110.915C104.786 109.254 102.43 108.875 100.43 109.887C98.2764 107.674 95.888 104.873 93.5871 101.431C92.1005 99.2054 90.8708 97.0455 89.8597 95.0175C90.9473 94.1268 91.9857 93.1796 92.9804 92.1759C94.5982 90.5314 96.0793 88.7456 97.391 86.8351C99.8122 87.5207 102.605 88.5245 105.567 90.0315C108.426 91.4792 110.809 93.071 112.727 94.5541C112 96.7068 112.689 99.0363 114.492 100.076C116.569 101.282 119.34 100.322 120.685 97.94C122.029 95.554 121.428 92.6475 119.351 91.442C117.537 90.3906 115.181 90.9914 113.727 92.7567C111.585 91.9298 108.983 90.6766 106.289 88.7539C103.49 86.7586 101.375 84.6182 99.845 82.772C100.878 80.8055 101.752 78.7376 102.452 76.5849C103.611 76.6254 104.84 76.7301 106.108 76.9236C109.382 77.4235 112.109 78.3624 114.208 79.2974C114.028 81.5953 115.307 83.6992 117.334 84.2274C119.652 84.8321 122.078 83.1671 122.756 80.5073C123.428 77.8469 122.1 75.2026 119.777 74.5979C117.744 74.0653 115.618 75.2913 114.673 77.4068C112.448 77.2217 109.59 76.7257 106.469 75.5008C105.289 75.033 104.195 74.5131 103.201 73.9689C103.698 71.9741 104.048 69.9218 104.228 67.8178C106.245 67.6527 108.387 67.5479 110.645 67.5435C114.624 67.5318 118.242 67.8217 121.417 68.249C121.8 70.4621 123.478 72.147 125.527 72.2119C127.921 72.2801 129.927 70.1113 129.998 67.3667C130.074 64.622 128.2 62.3402 125.811 62.2715Z" fill="#128E5A"/>
</svg>
