<svg width="141" height="287" viewBox="0 0 141 287" fill="none" xmlns="http://www.w3.org/2000/svg">
<path d="M131.935 136.427C127.488 136.294 123.656 139.783 122.568 144.578C115.684 145.124 107.819 145.31 99.1848 144.754C94.3828 144.436 89.8174 143.923 85.5477 143.288C85.5713 142.449 85.5831 141.602 85.5831 140.754C85.5831 136.63 85.2875 132.577 84.7434 128.611C86.9197 126.907 89.64 125.114 92.9399 123.578C98.6526 120.894 103.999 119.94 108.126 119.666C110.149 124.372 114.797 127.111 119.244 125.918C124.259 124.576 127.133 118.774 125.643 112.955C124.165 107.135 118.913 103.497 113.898 104.839C109.333 106.066 106.542 110.994 107.204 116.266C103.597 118.368 98.2268 120.646 91.5797 120.813C88.3035 120.902 85.4294 120.452 83.0993 119.87C81.6209 113.714 79.5038 107.815 76.7953 102.252C79.6576 99.6027 83.0402 96.794 87.0024 94.0826C92.7388 90.1447 98.2741 87.3277 103.135 85.3048C106.305 89.103 111.355 90.3658 115.258 88.0527C119.741 85.4019 120.995 79.0173 118.073 73.8068C115.152 68.5977 109.132 66.5309 104.649 69.189C100.758 71.4936 99.2912 76.6154 100.9 81.3316C96.7247 84.6514 91.5915 88.157 85.4294 91.2837C81.2424 93.4208 77.2329 95.0455 73.6019 96.2817C70.6332 91.1866 67.1678 86.4352 63.2647 82.0991C64.7668 76.5183 67.2978 70.0013 71.6149 63.4662C75.6717 57.356 80.1661 52.896 83.9864 49.7607C88.197 52.437 93.4958 52.0218 96.5118 48.498C99.9418 44.5067 99.1611 38.0516 94.7495 34.0786C90.3615 30.0958 84.0219 30.103 80.6038 34.0955C77.5878 37.6193 77.8243 43.0507 80.9586 47.014C78.4867 51.2008 74.7491 56.3931 69.2611 61.3388C63.2054 66.7957 57.1261 70.0633 52.4897 72.0061C47.2146 67.8642 41.4665 64.3489 35.328 61.5683C36.2151 59.0329 37.3978 56.4817 38.9472 53.9742C40.1891 51.9865 41.5256 50.238 42.874 48.7105C47.5458 50.6618 52.7855 49.2581 55.1391 45.1696C57.7885 40.604 55.8487 34.404 50.8102 31.3319C45.7717 28.2586 39.5504 29.4679 36.9011 34.0421C34.5829 38.0613 35.8011 43.3409 39.5505 46.6437C38.7699 48.7638 37.8236 50.9629 36.6882 53.2044C35.399 55.7835 34.0033 58.1599 32.5249 60.3577C31.898 60.1015 31.283 59.8549 30.6561 59.6255C23.3467 56.8169 15.5523 55.0428 7.42683 54.4417C6.09032 50.7503 4.93123 46.6595 4.11512 42.1667C2.45927 32.999 2.76686 25.0201 3.53565 19.0277C8.31396 18.0879 11.8858 14.2387 11.8858 9.62572C11.8858 4.30967 7.14304 0.000181551 1.28842 0.000181571C-4.57804 0.000181591 -9.3328 4.30967 -9.3328 9.62572C-9.3328 14.3176 -5.63076 18.2203 -0.734164 19.0727C0.330313 24.9789 1.02821 33.2455 -0.603992 42.8285C-1.3373 47.0469 -2.41365 50.8913 -3.66736 54.3714C-11.4617 54.8219 -18.9485 56.3651 -26.0214 58.8519C-27.0031 57.2467 -27.8901 55.5613 -28.6826 53.5736C-30.2438 49.6369 -30.918 45.948 -31.19 42.8771C-26.6128 40.4304 -24.2591 35.2976 -25.8677 30.7575C-27.6418 25.7644 -33.5437 23.3882 -39.0554 25.4524C-44.5552 27.5167 -47.583 33.237 -45.797 38.2313C-44.2595 42.5395 -39.6585 44.8915 -34.892 44.1302C-33.4964 47.0699 -32.1598 50.4589 -31.119 54.3094C-30.5513 56.3481 -30.1373 58.342 -29.818 60.2921C-36.2403 62.904 -42.2605 66.31 -47.7958 70.3863C-50.7054 68.2237 -53.686 65.7138 -56.631 62.7728C-63.4082 56.0009 -67.9264 49.0552 -70.8951 43.4927C-67.607 39.7576 -67.0274 34.41 -69.7833 30.7259C-72.9412 26.51 -79.2689 26.0655 -83.9172 29.7314C-88.5535 33.3985 -89.7599 39.7868 -86.6138 44.0015C-83.8107 47.7257 -78.5593 48.5004 -74.1594 46.101C-69.8779 50.0437 -64.3071 56.2619 -60.0019 65.2013C-58.0267 69.2898 -56.6547 73.2653 -55.6848 76.9725C-56.5719 77.8103 -57.4708 78.6748 -58.3342 79.5563C-62.6513 84.0042 -66.5189 88.9293 -69.8306 94.2587C-71.7821 93.6819 -73.8046 92.9837 -75.8744 92.1289C-82.6043 89.347 -87.8202 85.8002 -91.6051 82.7099C-89.9965 77.9038 -91.5696 72.7188 -95.5673 70.47C-100.097 67.914 -106.058 70.1191 -108.873 75.3951C-111.7 80.6687 -110.304 87.0169 -105.751 89.5717C-101.765 91.8181 -96.679 90.3828 -93.5921 86.4194C-89.003 88.049 -83.2785 90.6633 -77.3766 94.9557C-75.6143 96.238 -74.0057 97.5566 -72.5036 98.8826C-77.1755 107.526 -80.4399 117.078 -81.9893 127.22C-86.0225 127.573 -90.3749 127.743 -95.0468 127.595C-101.718 127.385 -107.738 126.582 -113.001 125.538C-113.119 120.234 -116.573 115.795 -121.257 115.29C-126.413 114.734 -131.085 119.134 -131.7 125.117C-132.304 131.099 -128.625 136.399 -123.48 136.952C-118.891 137.447 -114.704 134.013 -113.391 129.035C-107.998 129.147 -101.942 129.642 -95.3781 130.802C-90.8245 131.605 -86.6257 132.628 -82.7344 133.766C-82.9236 136.07 -83.0064 138.398 -83.0064 140.754C-83.0064 146.348 -82.4978 151.819 -81.5043 157.122C-85.9751 160.157 -92.1255 163.598 -99.9671 166.015C-106.839 168.133 -113.025 168.855 -117.957 169.01C-119.731 164.294 -124.131 161.352 -128.59 162.234C-133.664 163.242 -136.893 168.846 -135.781 174.752C-134.669 180.66 -129.642 184.63 -124.568 183.623C-120.169 182.751 -117.176 178.444 -117.164 173.477C-112.114 171.792 -106.153 170.21 -99.3758 169.18C-91.5932 167.997 -84.6032 167.827 -78.713 168.09C-76.3594 175.409 -73.0476 182.284 -68.9671 188.578C-70.895 190.143 -73.0358 191.688 -75.4605 193.131C-80.085 195.898 -84.5204 197.618 -88.3762 198.73C-90.9782 194.457 -95.8511 192.451 -100.062 194.198C-104.852 196.194 -106.969 202.331 -104.769 207.903C-103.385 211.4 -100.629 213.855 -97.578 214.694C-95.7802 215.197 -93.8759 215.136 -92.0899 214.394C-91.5695 214.173 -91.061 213.899 -90.5997 213.572C-87.0988 211.19 -85.6085 206.25 -87.0869 201.538C-83.444 199.608 -79.1861 197.697 -74.2895 196.121C-71.1315 195.111 -68.1274 194.372 -65.3006 193.824C-62.7222 197.248 -59.8836 200.461 -56.8439 203.426C-56.56 203.709 -56.2644 203.992 -55.9805 204.255C-58.0385 208.972 -61.1374 214.703 -65.8092 220.513C-70.3865 226.201 -75.1411 230.341 -79.1507 233.267C-83.1602 230.341 -88.4235 230.405 -91.6524 233.681C-95.3426 237.416 -94.9877 243.916 -90.8599 248.198C-86.7558 252.471 -80.4162 252.915 -76.7378 249.178C-73.5326 245.936 -73.3789 240.604 -76.0992 236.463C-72.9531 232.249 -68.8489 227.499 -63.6093 222.809C-57.9675 217.776 -52.4086 214.05 -47.5593 211.303C-41.1488 215.983 -34.0641 219.771 -26.5063 222.483C-26.802 225.405 -27.3106 228.558 -28.1503 231.87C-29.9718 239.085 -32.6921 244.869 -35.1641 249.126C-40.0252 248.127 -44.8272 250.406 -46.4712 254.769C-48.3282 259.723 -45.4067 265.498 -39.9424 267.67C-34.4899 269.843 -28.5525 267.582 -26.6719 262.619C-25.0515 258.31 -27.0386 253.382 -31.19 250.75C-30.0191 245.619 -28.1622 239.552 -25.2289 233.035C-23.786 229.857 -22.2602 226.96 -20.699 224.32C-14.868 225.936 -8.80056 226.926 -2.53197 227.199C-1.5148 232.233 -0.686872 237.866 -0.28474 244.021C0.318462 253.178 -0.166367 261.286 -1.01796 267.979C-5.77262 268.925 -9.3328 272.774 -9.3328 277.376C-9.3328 282.692 -4.58987 287 1.28842 287C7.14305 287 11.8858 282.692 11.8858 277.376C11.8858 272.792 8.34936 268.95 3.61835 267.987C2.8259 261.144 2.40011 253.055 2.84956 244.021C3.15707 237.927 3.83124 232.302 4.68282 227.216C11.2353 226.96 17.5867 225.928 23.6542 224.204C24.1746 225.122 24.6833 226.077 25.18 227.058C28.4799 233.53 30.254 239.598 31.2121 244.454C26.9896 246.971 24.837 251.863 26.3628 256.226C28.0896 261.232 33.9797 263.652 39.5031 261.638C45.0147 259.616 48.0899 253.92 46.3513 248.914C44.8137 244.472 39.9998 242.069 35.0796 242.988C32.8205 239.005 30.1948 232.991 29.2841 225.291C29.1658 224.337 29.0831 223.402 29.0358 222.483C35.7893 220.081 42.1525 216.805 48.0072 212.795C51.7801 215.947 55.7541 219.709 59.7045 224.178C65.7839 231.048 70.2073 237.822 73.4008 243.579C70.16 247.306 69.6041 252.613 72.3363 256.278C75.5061 260.49 81.822 260.932 86.4702 257.267C91.1066 253.603 92.3131 247.218 89.167 242.998C86.4348 239.359 81.337 238.528 77.0082 240.745C72.3481 235.897 67.1796 229.76 62.2002 222.218C58.9831 217.343 56.3219 212.611 54.1338 208.168C56.4875 206.216 58.7347 204.141 60.8873 201.942C64.3882 198.339 67.5935 194.427 70.4321 190.242C75.6717 191.744 81.7155 193.943 88.126 197.244C94.3118 200.416 99.4686 203.903 103.62 207.153C102.047 211.869 103.537 216.972 107.441 219.25C111.935 221.891 117.932 219.789 120.841 214.571C123.751 209.343 122.45 202.975 117.955 200.334C114.028 198.031 108.931 199.347 105.785 203.215C101.148 201.403 95.5183 198.658 89.6873 194.445C83.6316 190.074 79.0544 185.384 75.7427 181.34C77.9781 177.032 79.8704 172.501 81.3843 167.785C83.8918 167.874 86.553 168.103 89.297 168.527C96.3817 169.622 102.284 171.679 106.825 173.728C106.435 178.762 109.203 183.371 113.591 184.528C118.606 185.853 123.857 182.205 125.324 176.378C126.778 170.55 123.904 164.757 118.878 163.432C114.478 162.265 109.877 164.951 107.831 169.586C103.017 169.18 96.8311 168.093 90.0776 165.41C87.5228 164.385 85.1574 163.246 83.0047 162.054C84.0811 157.683 84.838 153.187 85.2283 148.578C89.5927 148.216 94.2291 147.986 99.1139 147.977C107.724 147.951 115.554 148.586 122.426 149.522C123.254 154.371 126.885 158.062 131.32 158.204C136.501 158.354 140.841 153.602 140.995 147.589C141.161 141.576 137.104 136.577 131.935 136.427Z" fill="#128E5A" fill-opacity="0.74"/>
</svg>
