<svg width="268" height="248" viewBox="0 0 268 248" fill="none" xmlns="http://www.w3.org/2000/svg">
<path d="M96.8019 241.258C81.6548 246.625 66.3611 249.104 50.048 246.005C31.8653 242.549 16.0943 226.989 7.1831 211.471C3.8721 205.707 1.2362 199.267 1.5806 192.63C2.3821 177.298 16.8664 175.585 29.1613 178.065C36.092 179.459 42.4558 182.634 48.7474 185.778C59.1929 191.001 71.4457 193.57 80.8104 200.81C83.9528 203.246 86.3127 206.174 89.9639 207.946C95.6439 210.706 102.128 212.009 107.962 214.52C112.943 216.675 118.511 220.22 118.518 225.645C118.519 231.208 112.714 234.754 107.614 236.969C104.004 238.547 100.41 239.986 96.8019 241.258Z" fill="url(#paint0_linear)"/>
<path d="M41.05 43.4955C65.863 6.92844 117.172 -7.75386 158.761 5.99454C178.816 12.6275 195.623 26.4393 211.125 40.7772C224.789 53.4142 238.045 67.0439 247.377 83.2899C253.748 94.3789 258.309 107.671 261.529 120.081C266.344 138.661 261.971 162.602 237.952 160.848C232.317 160.437 227.442 158.411 222.171 156.638C217.908 155.201 213.73 156.063 209.304 155.361C198.162 153.597 187.429 149.495 177.28 144.69C156.596 134.89 137.697 121.575 116.425 112.987C98.9929 105.958 80.3766 102.329 61.5807 102.296C53.6511 102.283 45.3134 102.838 38.2202 99.2919C20.7373 90.5449 28.5992 66.9579 35.1285 53.6902C36.8583 50.156 38.8371 46.7491 41.05 43.4955Z" fill="url(#paint1_linear)"/>
<path d="M235.597 49.015C239.682 52.7149 255.732 62.815 256.041 50.9624C256.114 48.0096 254.775 45.1425 252.952 42.98C250.867 40.4979 248.502 39.196 246.874 36.3042C244.881 32.8126 242.613 29.5311 240.099 26.502C234.959 20.1974 228.958 14.3722 221.676 11.7767C216.569 9.95848 207.922 10.4157 205.496 16.9612C201.962 26.4895 217.074 28.2354 221.683 31.7079C226.057 34.9947 228.534 40.6423 231.999 45.1307C233.094 46.546 234.298 47.8463 235.597 49.015Z" fill="url(#paint2_linear)"/>
<path d="M160.059 37.4252C168.712 42.5195 175.202 50.1448 183.091 56.286C196.225 66.509 214.228 68.6 229.29 75.71C244.648 82.963 256.245 94.236 261.488 110.483C268.262 131.455 268.906 156.395 263.151 177.955C256.813 201.687 241.929 217.451 220.168 227.964C198.419 238.471 174.326 243.374 150.296 244.386C147.977 244.485 145.662 244.539 143.338 244.554C91.1352 244.857 21.6503 226.482 3.87745 170.404C3.71455 169.891 3.55845 169.379 3.40185 168.859C1.57055 162.611 0.493748 156.167 0.194548 149.663C-0.923352 126.606 3.11195 101.157 11.1955 79.543C16.6324 64.991 28.3398 52.6869 40.6764 43.9199C58.0091 31.6034 79.1576 28.4602 100.206 26.9824C115.793 25.8888 133.323 25.4892 148.063 31.4512C152.205 33.14 156.215 35.1369 160.059 37.4252Z" fill="url(#paint3_linear)"/>
<path d="M62.3902 72.76C62.3902 72.76 115.466 143.627 128.743 149.487C142.024 155.35 158.672 154.03 160.128 160.828C161.584 167.63 132.255 156.125 136.934 166.617C141.612 177.113 159.846 189.093 159.932 199.659C160.021 210.229 130.917 176.972 130.917 176.972C130.917 176.972 158.339 207.399 149.259 208.118C140.175 208.838 116.688 179.09 116.688 179.09C116.688 179.09 142.961 218.114 134.251 214.549C125.546 210.985 44.8046 117.617 32.3535 107.737C19.9025 97.861 62.3902 72.76 62.3902 72.76Z" fill="#E27B5A"/>
<path d="M216.787 89.962C216.787 89.962 156.251 154.554 142.407 158.919C128.563 163.281 112.163 160.139 109.966 166.734C107.773 173.331 138.187 165.128 132.382 175.045C126.581 184.958 107.143 194.857 105.894 205.353C104.65 215.845 137.228 185.997 137.228 185.997C137.228 185.997 106.628 213.219 115.574 214.933C124.525 216.65 151.138 189.669 151.138 189.669C151.138 189.669 120.735 225.566 129.781 222.981C138.828 220.396 229.338 136.485 242.797 128.036C256.259 119.588 216.787 89.962 216.787 89.962Z" fill="#FFCEB0"/>
<path d="M165.25 134.812C165.25 134.812 183.869 170.069 200.985 173.82C218.099 177.571 255.071 144.104 263.138 127.527C271.208 110.953 231.877 60.7966 223.46 53.5825C211.301 52.0981 156.618 103.385 165.25 134.812Z" fill="#FB4C47"/>
<path d="M49.7212 38.5533C49.7212 38.5533 110.959 98.9059 108.057 114.577C105.159 130.251 81.7758 149.026 62.9172 155.174C44.0587 161.32 2.83003 136.563 2.83003 118.51C-0.176374 87.8499 15.4549 55.9874 49.7212 38.5533Z" fill="#128E5A"/>
<defs>
<linearGradient id="paint0_linear" x1="0.236102" y1="194.746" x2="15.9513" y2="249.313" gradientUnits="userSpaceOnUse">
<stop stop-color="#FFD0D0"/>
<stop offset="1" stop-color="#FFF8F8"/>
</linearGradient>
<linearGradient id="paint1_linear" x1="293.772" y1="48.822" x2="117.881" y2="8.20655" gradientUnits="userSpaceOnUse">
<stop stop-color="#FFF8F8"/>
<stop offset="1" stop-color="#FFD0D0"/>
</linearGradient>
<linearGradient id="paint2_linear" x1="256.458" y1="50.7546" x2="196.112" y2="24.9798" gradientUnits="userSpaceOnUse">
<stop stop-color="#FFD0D0"/>
<stop offset="1" stop-color="#FFF7F7"/>
</linearGradient>
<linearGradient id="paint3_linear" x1="242.838" y1="220.726" x2="0.244057" y2="80.24" gradientUnits="userSpaceOnUse">
<stop stop-color="#FFCFCF"/>
<stop offset="1" stop-color="#FFF8F8"/>
</linearGradient>
</defs>
</svg>
