<svg width="564" height="633" viewBox="0 0 564 633" fill="none" xmlns="http://www.w3.org/2000/svg">
<path d="M202.018 564.898C170.542 576.05 138.761 581.203 104.861 574.762C67.0768 567.58 34.3037 535.245 15.7858 502.998C8.90537 491.021 3.42777 477.637 4.14357 463.846C5.80897 431.985 35.9082 428.425 61.4578 433.578C75.8601 436.476 89.0841 443.073 102.159 449.606C123.865 460.461 149.327 465.799 168.788 480.844C175.318 485.907 180.222 491.99 187.81 495.674C199.613 501.408 213.086 504.116 225.21 509.335C235.561 513.813 247.13 521.179 247.146 532.453C247.147 544.014 235.085 551.382 224.487 555.984C216.986 559.263 209.517 562.253 202.018 564.898Z" fill="url(#paint0_linear)"/>
<path d="M86.1592 153.937C137.722 77.9484 244.345 47.4375 330.769 76.0076C372.444 89.7914 407.37 118.493 439.584 148.288C467.979 174.548 495.527 202.873 514.918 236.632C528.159 259.675 537.636 287.297 544.328 313.085C554.333 351.697 545.247 401.448 495.334 397.803C483.623 396.949 473.492 392.737 462.539 389.053C453.68 386.067 444.998 387.858 435.8 386.399C412.647 382.733 390.344 374.209 369.253 364.225C326.271 343.859 286.997 316.19 242.793 298.344C206.568 283.737 167.882 276.196 128.823 276.127C112.345 276.1 95.0192 277.253 80.2792 269.885C43.9485 251.708 60.286 202.694 73.8542 175.122C77.4489 167.778 81.5612 160.698 86.1592 153.937Z" fill="url(#paint1_linear)"/>
<path d="M490.445 165.406C498.933 173.095 532.286 194.084 532.928 169.453C533.08 163.317 530.297 157.359 526.509 152.865C522.175 147.707 517.262 145.002 513.878 138.992C509.738 131.737 505.024 124.917 499.799 118.623C489.118 105.522 476.647 93.4163 461.516 88.0228C450.903 84.2444 432.935 85.1946 427.893 98.7964C420.549 118.597 451.953 122.225 461.53 129.441C470.619 136.271 475.767 148.007 482.967 157.334C485.242 160.275 487.746 162.978 490.445 165.406Z" fill="url(#paint2_linear)"/>
<path d="M333.467 141.323C351.448 151.909 364.936 167.755 381.329 180.517C408.623 201.761 446.033 206.107 477.333 220.88C509.248 235.954 533.347 259.379 544.243 293.142C558.319 336.722 559.657 388.548 547.698 433.351C534.527 482.668 503.598 515.428 458.377 537.274C413.181 559.108 363.114 569.297 313.179 571.399C308.36 571.606 303.55 571.718 298.72 571.749C190.24 572.379 45.8457 534.195 8.91274 417.66C8.57424 416.595 8.24984 415.531 7.92444 414.451C4.11874 401.467 1.88114 388.075 1.25934 374.56C-1.06366 326.647 7.32204 273.762 24.12 228.846C35.4182 198.607 59.747 173.038 85.3829 154.82C121.402 129.225 165.349 122.693 209.09 119.622C241.48 117.35 277.909 116.519 308.538 128.909C317.146 132.418 325.479 136.568 333.467 141.323Z" fill="url(#paint3_linear)"/>
<path d="M409.019 561.411C269.972 601.841 154.1 562.855 113.545 538.308L75.8867 509.429L88.9222 487.77L170.033 480.551L304.734 473.331L413.364 494.99L526.339 457.448H534.5C517.119 516.36 444.746 551.303 409.019 561.411Z" fill="#FB4C47"/>
<path d="M397.5 274C397.5 274 507.5 279 534 394.5C555 543.5 456.011 490.804 432.343 483.46C408.681 476.116 324.307 285.402 397.5 274Z" fill="#D9423D"/>
<path d="M121.572 506.307H457.565C457.565 506.307 469.329 313.122 426.523 284.854C383.723 256.591 183.556 262.494 139.192 286.634C94.8269 310.781 121.572 506.307 121.572 506.307Z" fill="#FB4C47"/>
<path d="M172.961 257.758C172.581 257.758 172.196 257.659 171.846 257.449C170.818 256.848 146.806 242.124 153 204.234C155.166 190.981 157.805 181.43 160.134 172.994C164.326 157.815 167.356 146.845 164.91 124.747C164.781 123.545 165.646 122.465 166.848 122.33C168.045 122.254 169.131 123.066 169.265 124.269C171.805 147.201 168.512 159.099 164.355 174.162C162.055 182.481 159.451 191.921 157.32 204.94C151.605 239.911 173.848 253.549 174.076 253.689C175.115 254.302 175.459 255.645 174.841 256.684C174.438 257.379 173.708 257.758 172.961 257.758Z" fill="#000C3E"/>
<path d="M258.665 24.398C260.37 39.478 249.523 53.0809 234.443 54.7857C219.363 56.4904 205.76 45.6431 204.055 30.5631C202.356 15.4831 213.198 1.88015 228.278 0.175413C243.358 -1.5235 256.961 9.31799 258.665 24.398Z" fill="#000C3E"/>
<path d="M169.259 247.547C169.259 247.547 179.709 262.778 213.139 263.648C246.562 264.512 270.33 248.878 296.835 254.196C323.334 259.515 357.85 242.158 363.448 230.511C369.053 218.869 349.88 102.164 327.106 85.549C304.331 68.9336 198.041 68.2505 179.009 94.5924C159.976 120.934 153 236.536 169.259 247.547Z" fill="#000C3E"/>
<path d="M343.258 126.912C348.869 176.607 313.133 221.444 263.439 227.054C213.744 232.665 168.907 196.929 163.297 147.235C157.686 97.5405 193.422 52.7033 243.116 47.0928C292.811 41.4823 337.648 77.2178 343.258 126.912Z" fill="#000C3E"/>
<path d="M301.82 209.743C301.82 209.743 318.161 278.592 313.519 287.221C308.878 295.844 271.199 295.593 261.227 295.12C251.25 294.641 235.965 219.691 241.774 218.809C247.583 217.934 298.358 194.365 301.82 209.743Z" fill="#FFCEB0"/>
<path d="M179.667 144.755C179.667 144.755 199.762 252.883 273.947 246.473C348.139 240.069 324.932 86.9509 296.144 76.4072C267.356 65.8576 156.798 85.3454 179.667 144.755Z" fill="#FFCEB0"/>
<path d="M258.625 156.626C258.625 156.626 277.71 187.959 274.435 190.721C271.159 193.482 260.528 194.679 257.311 192.653C254.094 190.621 252.32 153.748 258.625 156.626Z" fill="#EE9B68"/>
<path d="M228.769 78.0594C228.769 78.0594 204.348 94.7799 202.946 119.458C201.545 144.13 213.391 204.981 185.052 206.388C185.052 206.388 112.694 93.3495 228.769 78.0594Z" fill="#000C3E"/>
<path d="M242.735 76.4811C240.604 78.5537 270.145 74.0174 290.141 91.9523C310.131 109.887 321.877 160.475 324.633 161.029C327.394 161.584 328.101 95.6186 306.657 79.0732C285.208 62.5279 254.867 64.688 242.735 76.4811Z" fill="#000C3E"/>
<path d="M246.1 240.549C246.1 240.549 277.142 252.488 304.535 232.813C304.535 232.813 309.596 250.713 307.921 255.267C306.251 259.826 259.692 269.932 247.303 250.59C247.303 250.59 243.292 240.052 246.1 240.549Z" fill="#EE9B68"/>
<path d="M318.957 166.35C318.957 166.35 321.882 138.082 335.613 145.911C349.35 153.74 342.537 183.853 330.803 188.261C319.062 192.674 314.374 181.389 318.957 166.35Z" fill="#FFCEB0"/>
<path d="M202.411 179.511C202.411 179.511 193.257 152.603 181.615 163.298C169.974 173.994 183.326 201.83 195.75 203.512C208.179 205.193 210.228 193.149 202.411 179.511Z" fill="#FFCEB0"/>
<path d="M283.568 137.219C283.568 137.219 294.526 127.189 304.883 134.778C313.985 141.451 296.465 138.696 290.959 141.305C285.46 143.915 277.683 145.433 283.568 137.219Z" fill="#41294A"/>
<path d="M233.018 146.832C233.018 146.832 219.981 139.704 211.737 149.541C204.486 158.193 220.845 151.339 226.812 152.559C232.778 153.785 240.689 153.406 233.018 146.832Z" fill="#41294A"/>
<path d="M231.727 156.548C230.927 156.548 230.127 156.594 229.315 156.682C217.657 158.007 209.238 168.569 210.552 180.222C211.865 191.781 222.333 200.311 234.079 198.98C239.731 198.337 244.792 195.541 248.336 191.098C251.88 186.649 253.48 181.091 252.843 175.446C251.623 164.675 242.551 156.548 231.727 156.548ZM231.668 202.033C219.361 202.033 209.034 192.797 207.656 180.548C206.155 167.296 215.73 155.287 228.983 153.786C242.469 152.216 254.256 161.971 255.739 175.119C256.469 181.541 254.647 187.864 250.619 192.914C246.591 197.97 240.834 201.151 234.412 201.875C233.49 201.98 232.573 202.033 231.668 202.033Z" fill="#FFFCF6"/>
<path d="M290.927 144.182C290.122 144.182 289.322 144.229 288.504 144.317C282.853 144.959 277.791 147.755 274.253 152.198C270.704 156.647 269.11 162.205 269.741 167.85C271.054 179.416 281.522 187.934 293.268 186.608C298.92 185.966 303.981 183.17 307.525 178.727C311.069 174.278 312.669 168.72 312.032 163.075C310.812 152.309 301.745 144.182 290.927 144.182ZM290.846 189.662C278.545 189.662 268.223 180.426 266.845 168.177C266.115 161.755 267.937 155.432 271.965 150.382C275.993 145.327 281.756 142.145 288.172 141.421C301.576 139.862 313.445 149.594 314.928 162.748C315.658 169.17 313.836 175.492 309.808 180.548C305.78 185.598 300.023 188.78 293.601 189.504C292.679 189.609 291.762 189.662 290.846 189.662Z" fill="#FFFCF6"/>
<path d="M209.078 176.941C208.967 176.941 208.862 176.929 208.751 176.9L199.48 174.769C198.698 174.594 198.207 173.806 198.388 173.024C198.569 172.236 199.369 171.728 200.134 171.932L209.405 174.063C210.187 174.238 210.678 175.026 210.497 175.809C210.345 176.486 209.743 176.941 209.078 176.941Z" fill="#FFFCF6"/>
<path d="M311.607 157.557C311.052 157.557 310.521 157.236 310.276 156.704C309.943 155.974 310.27 155.105 311 154.766L322.635 149.453C323.341 149.115 324.229 149.436 324.567 150.177C324.9 150.907 324.579 151.777 323.844 152.11L312.214 157.428C312.015 157.516 311.811 157.557 311.607 157.557Z" fill="#FFFCF6"/>
<path d="M236.821 71.0068C236.821 71.0068 249.035 129.418 266.076 132.313C283.124 135.209 322.829 127.713 323.781 120.976C324.732 114.244 284.017 67.3579 259.164 62.6056C215.576 54.2746 190.017 126.954 197.186 142.454C204.361 157.96 237.779 138.397 245.047 135.168C252.322 131.934 237.066 82.8816 236.821 71.0068Z" fill="#000C3E"/>
<path d="M254.108 175.476C253.443 175.476 252.841 175.021 252.69 174.35C252.509 173.561 252.993 172.779 253.775 172.598L268.412 169.2C269.229 168.99 269.988 169.51 270.163 170.286C270.344 171.074 269.86 171.857 269.071 172.038L254.441 175.435C254.324 175.465 254.219 175.476 254.108 175.476Z" fill="#FFFCF6"/>
<path d="M218.167 57.2585C217.933 57.2585 217.7 57.2235 217.466 57.1418C208.902 54.2402 203.303 49.2486 200.822 42.2895C195.381 27.011 207.121 7.98435 207.629 7.17869C208.271 6.15117 209.614 5.83591 210.647 6.48979C211.669 7.12614 211.979 8.4806 211.342 9.50228C211.231 9.68326 200.215 27.5598 204.949 40.8299C206.958 46.4521 211.646 50.5505 218.868 52.9967C220.012 53.382 220.631 54.6255 220.24 55.7698C219.936 56.6806 219.078 57.2585 218.167 57.2585Z" fill="#000C3E"/>
<path d="M250.231 57.3666C249.718 57.3666 249.198 57.1856 248.784 56.8178C247.879 56.018 247.791 54.6343 248.591 53.7294C248.731 53.5718 262.532 37.7445 260.045 23.8789C258.983 17.994 255.036 13.1892 248.317 9.58706C247.248 9.01492 246.845 7.68965 247.417 6.6271C247.99 5.54704 249.332 5.1734 250.377 5.72219C258.352 9.99573 263.046 15.8455 264.354 23.1141C267.215 39.0698 252.503 55.9187 251.872 56.631C251.44 57.1156 250.839 57.3666 250.231 57.3666Z" fill="#000C3E"/>
<path d="M355.408 228.326C354.866 228.326 354.323 228.128 353.902 227.719C353.027 226.89 352.991 225.507 353.826 224.625C354.48 223.93 369.887 207.309 361.755 184.447C358.573 175.497 353.733 165.794 348.613 155.513C339.686 137.584 330.45 119.048 327.508 100.249C327.315 99.0519 328.133 97.931 329.329 97.75C330.526 97.4873 331.647 98.3747 331.828 99.5715C334.665 117.705 343.75 135.932 352.536 153.557C357.715 163.961 362.607 173.78 365.882 182.976C374.937 208.436 357.726 226.873 356.991 227.649C356.564 228.099 355.986 228.326 355.408 228.326Z" fill="#000C3E"/>
<path d="M347.718 128.502C346.539 128.502 345.564 127.562 345.529 126.377C344.858 102.125 337.373 83.3437 323.28 70.5348C300.587 49.9202 268.15 51.8468 267.841 51.8818C266.498 52.0394 265.593 51.0469 265.511 49.8443C265.424 48.6416 266.34 47.5966 267.549 47.5149C268.944 47.4156 302.157 45.4306 326.228 67.3004C341.238 80.9325 349.201 100.765 349.908 126.248C349.943 127.457 348.991 128.467 347.783 128.502H347.718Z" fill="#000C3E"/>
<path d="M269.525 226.496C266.979 226.496 265.17 226.053 265.018 226.012C263.844 225.714 263.138 224.535 263.43 223.361C263.722 222.199 264.901 221.493 266.08 221.762C266.139 221.785 272.409 223.274 277.167 219.94C278.171 219.251 279.531 219.491 280.215 220.471C280.909 221.464 280.67 222.83 279.683 223.519C276.262 225.918 272.421 226.496 269.525 226.496Z" fill="#EE9B68"/>
<path d="M196.982 196.387C196.877 196.387 196.772 196.382 196.661 196.364C195.464 196.189 194.641 195.074 194.816 193.877C196.801 180.35 186.082 173.181 185.971 173.117C184.961 172.451 184.681 171.096 185.335 170.081C185.995 169.065 187.349 168.785 188.365 169.444C188.902 169.795 201.536 178.242 199.148 194.519C198.99 195.605 198.056 196.387 196.982 196.387Z" fill="#EE9B68"/>
<path d="M326.299 183.337C325.149 183.337 324.186 182.444 324.115 181.282C323.088 164.842 329.849 155.075 330.135 154.666C330.824 153.691 332.19 153.44 333.182 154.14C334.175 154.835 334.408 156.201 333.719 157.188C333.655 157.276 327.566 166.196 328.482 181.014C328.558 182.222 327.642 183.255 326.433 183.331C326.392 183.337 326.346 183.337 326.299 183.337Z" fill="#EE9B68"/>
<path d="M205.747 291.15C205.747 291.15 255.459 350.582 293.799 334.679C332.132 318.776 368.049 275.667 348.777 269.946C329.505 264.224 175.611 267.237 205.747 291.15Z" fill="#FFCEB0"/>
<path d="M243.17 177.849C243.719 181.469 241.226 184.843 237.607 185.392C233.987 185.935 230.612 183.448 230.064 179.828C229.521 176.208 232.008 172.834 235.627 172.285C239.247 171.742 242.622 174.229 243.17 177.849Z" fill="#41294A"/>
<path d="M305.334 165.895C305.883 169.514 303.39 172.889 299.77 173.438C296.15 173.981 292.776 171.493 292.227 167.874C291.684 164.254 294.171 160.88 297.791 160.331C301.411 159.788 304.785 162.275 305.334 165.895Z" fill="#41294A"/>
<path d="M253.988 218.532C253.643 218.532 253.305 218.45 252.983 218.287C251.915 217.732 251.489 216.419 252.044 215.339C252.359 214.731 259.908 200.311 272.068 198.951C278.975 198.18 285.712 201.712 292.175 209.419C292.952 210.353 292.829 211.731 291.907 212.507C290.984 213.301 289.606 213.161 288.824 212.238C283.354 205.717 277.912 202.687 272.565 203.306C262.739 204.392 256.002 217.213 255.932 217.347C255.546 218.1 254.782 218.532 253.988 218.532Z" fill="#EE9B68"/>
<g filter="url(#filter0_d)">
<path d="M377.879 548.004C436.112 548.004 483.319 500.797 483.319 442.564C483.319 384.331 436.112 337.124 377.879 337.124C319.646 337.124 272.439 384.331 272.439 442.564C272.439 500.797 319.646 548.004 377.879 548.004Z" fill="white"/>
</g>
<path d="M323.808 395.505C323.808 395.505 367.878 454.347 378.902 459.212C389.929 464.081 403.753 462.985 404.962 468.629C406.171 474.277 381.818 464.725 385.703 473.436C389.588 482.151 404.728 492.098 404.799 500.871C404.873 509.648 380.708 482.034 380.708 482.034C380.708 482.034 403.476 507.298 395.937 507.895C388.395 508.493 368.893 483.793 368.893 483.793C368.893 483.793 390.708 516.195 383.476 513.235C376.248 510.276 309.207 432.751 298.868 424.547C288.53 416.346 323.808 395.505 323.808 395.505Z" fill="#E27B5A"/>
<path d="M452.005 409.788C452.005 409.788 401.74 463.42 390.246 467.044C378.751 470.666 365.133 468.057 363.309 473.533C361.488 479.011 386.742 472.199 381.922 480.434C377.105 488.665 360.965 496.884 359.929 505.599C358.895 514.311 385.945 489.527 385.945 489.527C385.945 489.527 360.538 512.13 367.966 513.553C375.398 514.979 397.496 492.576 397.496 492.576C397.496 492.576 372.251 522.382 379.763 520.236C387.274 518.089 462.426 448.417 473.601 441.402C484.779 434.387 452.005 409.788 452.005 409.788Z" fill="#F8B38A"/>
<path d="M409.214 447.027C409.214 447.027 424.674 476.301 438.886 479.416C453.096 482.531 475.649 459.946 482.347 446.182C489.048 432.421 474.078 391.395 460.639 377.44C450.543 376.207 402.047 420.933 409.214 447.027Z" fill="#F65551"/>
<path d="M310.232 361.934C310.232 361.934 364.135 417.215 361.726 430.226C359.32 443.24 339.904 458.83 324.245 463.935C308.587 469.038 273.019 448.251 273.019 433.261C274.569 404.833 290.591 377.957 310.232 361.934Z" fill="#128E5A"/>
<path d="M129.907 425.958C129.907 425.958 248.768 490.914 270.988 490.648C293.206 490.376 315.565 477.983 321.905 486.516C328.242 495.056 280.087 497.654 293.26 509.293C306.426 520.929 339.422 526.033 346.243 540.687C353.057 555.339 291.433 527.52 291.433 527.52C291.433 527.52 348.927 552.467 336.73 559.228C324.529 565.996 272.949 539.496 272.949 539.496C272.949 539.496 334.293 577.142 319.901 577.704C305.508 578.267 133.833 499.549 110.226 493.698C86.6141 487.848 129.907 425.958 129.907 425.958Z" fill="#FFC6A6"/>
<path d="M221.609 422.254C221.609 422.254 223.034 477.413 210.365 498.46C180.244 548.5 98.787 542.399 74.5007 506.5C50.2139 470.601 103.322 289.36 139.192 286.633C175.062 283.907 221.609 370 221.609 422.254Z" fill="#D9423D"/>
<path d="M244.835 5.66956C244.162 5.66956 243.432 5.74767 242.641 5.90389C240.712 6.29103 239.462 7.22834 238.712 8.85504C235.367 16.0954 242.42 33.3405 247.46 43.5287C250.574 32.2266 254.306 13.3345 249.032 7.38116C248.017 6.2367 246.635 5.66956 244.835 5.66956ZM248.047 52.0323C247.209 52.0323 246.424 51.5807 246.01 50.8335C244.227 47.6379 228.768 19.2572 234.473 6.89892C235.845 3.92739 238.355 1.99844 241.727 1.32602C247.473 0.181555 250.774 2.30408 252.527 4.28397C261.689 14.6284 251.464 46.7957 250.268 50.4294C249.976 51.309 249.195 51.9339 248.272 52.0222C248.197 52.029 248.122 52.0323 248.047 52.0323Z" fill="#FFD310"/>
<path d="M276.307 17.1532C276.086 17.1532 275.862 17.1667 275.638 17.2007C267.749 18.2501 258.216 34.9824 253.177 45.5678C263.653 41.1564 280.27 32.7308 282.478 25.0693C282.973 23.3441 282.641 21.8193 281.435 20.2639C279.812 18.1754 278.131 17.1532 276.307 17.1532ZM248.697 52.1799C248.069 52.1799 247.454 51.9286 247.009 51.46C246.368 50.7876 246.184 49.8027 246.541 48.9469C248.015 45.4184 261.32 14.399 275.02 12.5719C277.645 12.2221 281.527 12.7723 285.12 17.3977C287.232 20.1145 287.871 23.2151 286.964 26.3598C283.194 39.438 252.932 50.7876 249.495 52.0407C249.234 52.1358 248.966 52.1799 248.697 52.1799Z" fill="#FFD310"/>
<path d="M204.867 43.9336C216.207 51.2238 242.128 56.8939 262.378 43.9336" stroke="#FFD310" stroke-width="4.87"/>
<defs>
<filter id="filter0_d" x="192.439" y="261.124" width="370.88" height="370.88" filterUnits="userSpaceOnUse" color-interpolation-filters="sRGB">
<feFlood flood-opacity="0" result="BackgroundImageFix"/>
<feColorMatrix in="SourceAlpha" type="matrix" values="0 0 0 0 0 0 0 0 0 0 0 0 0 0 0 0 0 0 127 0"/>
<feOffset dy="4"/>
<feGaussianBlur stdDeviation="40"/>
<feColorMatrix type="matrix" values="0 0 0 0 0 0 0 0 0 0 0 0 0 0 0 0 0 0 0.22 0"/>
<feBlend mode="normal" in2="BackgroundImageFix" result="effect1_dropShadow"/>
<feBlend mode="normal" in="SourceGraphic" in2="effect1_dropShadow" result="shape"/>
</filter>
<linearGradient id="paint0_linear" x1="1.34947" y1="468.244" x2="34.0067" y2="581.637" gradientUnits="userSpaceOnUse">
<stop stop-color="#FFCCCC"/>
<stop offset="1" stop-color="#FFEEEE"/>
</linearGradient>
<linearGradient id="paint1_linear" x1="611.331" y1="165.006" x2="245.819" y2="80.6042" gradientUnits="userSpaceOnUse">
<stop stop-color="white"/>
<stop offset="1" stop-color="#FFCECE"/>
</linearGradient>
<linearGradient id="paint2_linear" x1="533.794" y1="169.021" x2="408.392" y2="115.46" gradientUnits="userSpaceOnUse">
<stop stop-color="#FFD1D1"/>
<stop offset="1" stop-color="#FFFBFC"/>
</linearGradient>
<linearGradient id="paint3_linear" x1="505.487" y1="522.233" x2="1.3622" y2="230.296" gradientUnits="userSpaceOnUse">
<stop stop-color="#FFCDCD"/>
<stop offset="1" stop-color="#FFF3F3"/>
</linearGradient>
</defs>
</svg>
