<svg width="540" height="554" viewBox="0 0 540 554" fill="none" xmlns="http://www.w3.org/2000/svg">
<path d="M196.05 539.51C165.478 550.342 134.61 555.347 101.685 549.091C64.9858 542.115 33.1545 510.709 15.1687 479.389C8.48599 467.756 3.16579 454.757 3.86099 441.362C5.47859 410.417 34.7129 406.959 59.5283 411.964C73.5168 414.779 86.361 421.186 99.06 427.532C120.142 438.074 144.873 443.259 163.774 457.872C170.116 462.79 174.879 468.698 182.249 472.275C193.714 477.845 206.8 480.475 218.575 485.544C228.628 489.893 239.866 497.048 239.88 507.997C239.882 519.227 228.167 526.382 217.873 530.853C210.587 534.038 203.333 536.942 196.05 539.51Z" fill="url(#paint0_linear)"/>
<path d="M83.5218 140.359C133.603 66.5536 237.161 36.9195 321.103 64.6686C361.58 78.0563 395.502 105.933 426.79 134.872C454.37 160.378 481.126 187.888 499.96 220.677C512.82 243.058 522.025 269.887 528.524 294.933C538.242 332.436 529.417 380.757 480.938 377.217C469.564 376.387 459.724 372.297 449.086 368.719C440.481 365.818 432.049 367.558 423.115 366.141C400.628 362.58 378.965 354.301 358.48 344.604C316.733 324.824 278.588 297.95 235.654 280.616C200.47 266.429 162.896 259.105 124.96 259.037C108.955 259.011 92.1268 260.131 77.8099 252.975C42.5234 235.32 58.3914 187.715 71.5698 160.935C75.0611 153.802 79.0548 146.926 83.5218 140.359Z" fill="url(#paint1_linear)"/>
<path d="M476.186 151.498C484.43 158.966 516.825 179.352 517.448 155.428C517.596 149.469 514.893 143.682 511.214 139.317C507.005 134.308 502.233 131.68 498.946 125.843C494.924 118.796 490.346 112.173 485.271 106.059C474.897 93.3341 462.785 81.5767 448.088 76.3382C437.78 72.6683 420.328 73.5912 415.432 86.8022C408.298 106.034 438.8 109.558 448.102 116.566C456.93 123.2 461.93 134.599 468.923 143.658C471.133 146.515 473.564 149.139 476.186 151.498Z" fill="url(#paint2_linear)"/>
<path d="M323.721 128.107C341.185 138.389 354.285 153.78 370.208 166.175C396.717 186.808 433.053 191.029 463.453 205.378C494.45 220.018 517.857 242.771 528.44 275.564C542.111 317.891 543.411 368.228 531.795 411.744C519.003 459.643 488.963 491.461 445.041 512.68C401.144 533.887 352.516 543.783 304.016 545.825C299.335 546.026 294.663 546.134 289.972 546.164C184.609 546.776 44.3646 509.689 8.49294 396.503C8.16414 395.469 7.84904 394.435 7.53294 393.386C3.83674 380.776 1.66334 367.768 1.05944 354.642C-1.19686 308.105 6.94794 256.74 23.2632 213.115C34.2367 183.744 57.8664 158.91 82.7661 141.216C117.749 116.357 160.434 110.012 202.918 107.03C234.377 104.823 269.759 104.016 299.508 116.049C307.869 119.458 315.963 123.488 323.721 128.107Z" fill="url(#paint3_linear)"/>
<path d="M397.102 536.123C262.051 575.391 149.509 537.525 110.119 513.684L73.5425 485.635L86.2039 464.598L164.983 457.586L295.814 450.574L401.323 471.611L511.051 435.147H522.306C505.424 492.367 431.803 526.306 397.102 536.123Z" fill="#FB4C47"/>
<path d="M103.601 504.644H436.958C436.958 504.644 448.63 312.974 406.16 284.927C363.696 256.886 174.28 266.496 132.917 294.78C28.0285 366.495 103.601 504.644 103.601 504.644Z" fill="#FB4C47"/>
<path d="M159.098 244.542C158.617 244.542 158.13 244.386 157.731 244.05C156.81 243.303 135.436 225.312 147.131 189.051C151.214 176.372 155.217 167.399 158.75 159.47C165.116 145.203 169.715 134.887 170.584 112.841C170.63 111.642 171.65 110.744 172.843 110.75C174.042 110.802 174.975 111.81 174.928 113.009C174.025 135.889 169.037 147.08 162.718 161.242C159.231 169.068 155.28 177.936 151.255 190.384C140.516 223.713 159.665 240.013 160.482 240.69C161.403 241.455 161.542 242.822 160.777 243.743C160.349 244.27 159.723 244.542 159.098 244.542Z" fill="#000C3E"/>
<path d="M277.432 28.286C276.87 43.3346 264.214 55.07 249.165 54.5081C234.122 53.9462 222.381 41.2899 222.943 26.2471C223.511 11.1985 236.161 -0.542629 251.21 0.0192309C266.253 0.586883 277.994 13.2374 277.432 28.286Z" fill="#000C3E"/>
<path d="M156.659 233.954C156.659 233.954 164.658 250.45 197.316 256.249C229.979 262.053 255.61 250.236 280.824 259.382C306.039 268.523 342.467 256.608 349.69 246.013C356.907 235.419 355.395 118.095 335.516 98.418C315.631 78.7471 211.461 62.3257 188.888 85.3446C166.315 108.369 142.34 220.741 156.659 233.954Z" fill="#000C3E"/>
<path d="M345.233 141.39C343.374 190.973 301.675 229.666 252.092 227.807C202.509 225.948 163.816 184.248 165.676 134.66C167.535 85.077 209.234 46.3897 258.817 48.2491C308.4 50.1027 347.093 91.8078 345.233 141.39Z" fill="#000C3E"/>
<path d="M292.307 216.508C292.307 216.508 298.14 286.474 292.307 294.247C286.474 302.02 249.547 296.193 239.834 294.247C230.114 292.307 226.227 216.508 232.055 216.508C237.887 216.508 291.189 200.909 292.307 216.508Z" fill="#FFCEB0"/>
<path d="M182.101 134.656C182.101 134.656 185.797 243.709 259.522 248.418C333.253 253.122 333.178 99.4733 306.498 84.8591C279.813 70.2449 168.472 72.9847 182.101 134.656Z" fill="#FFCEB0"/>
<path d="M257.803 157.999C257.803 157.999 271.885 191.566 268.259 193.79C264.638 196.015 254.032 195.615 251.177 193.147C248.321 190.68 252.046 154.246 257.803 157.999Z" fill="#EE9B68"/>
<path d="M240.153 76.4997C240.153 76.4997 213.717 89.2835 208.689 113.281C203.655 137.285 206.262 198.736 178.25 195.915C178.25 195.915 124.016 74.2986 240.153 76.4997Z" fill="#000C3E"/>
<path d="M254.088 77.0207C251.69 78.741 281.347 78.6657 298.301 99.2228C315.261 119.774 319.287 171.147 321.905 172.097C324.529 173.052 335.002 108.444 316.408 89.034C297.82 69.6238 267.735 67.2489 254.088 77.0207Z" fill="#000C3E"/>
<path d="M233.081 238.473C233.081 238.473 261.77 254.784 291.549 239.538C291.549 239.538 293.866 257.848 291.549 262.071C289.232 266.293 242.059 269.311 232.774 248.499C232.774 248.499 230.399 237.569 233.081 238.473Z" fill="#EE9B68"/>
<path d="M315.545 176.478C315.545 176.478 322.606 149.179 334.915 158.893C347.229 168.612 336.091 197.14 323.921 199.729C311.751 202.318 308.82 190.554 315.545 176.478Z" fill="#FFCEB0"/>
<path d="M199.264 172.121C199.264 172.121 194.265 144.37 181.261 153.14C168.257 161.904 177.23 191.19 189.174 194.683C201.118 198.17 204.912 186.66 199.264 172.121Z" fill="#FFCEB0"/>
<path d="M285.148 142.656C285.148 142.656 297.387 134.443 306.417 143.421C314.359 151.316 297.578 146.016 291.798 147.759C286.011 149.503 278.162 149.845 285.148 142.656Z" fill="#41294A"/>
<path d="M234.13 144.597C234.13 144.597 222.401 135.671 212.855 144.105C204.462 151.513 221.52 147.216 227.191 149.301C232.862 151.386 240.681 152.185 234.13 144.597Z" fill="#41294A"/>
<path d="M228.222 153.703C216.835 153.703 207.578 162.629 207.144 174.028C206.709 185.659 215.821 195.477 227.452 195.906L228.263 195.923C239.651 195.923 248.907 186.997 249.341 175.604C249.776 163.967 240.659 154.149 229.033 153.72L228.222 153.703ZM228.263 198.819L227.342 198.802C214.112 198.31 203.755 187.142 204.248 173.912C204.74 160.961 215.271 150.806 228.222 150.806L229.143 150.824C242.367 151.316 252.724 162.484 252.238 175.719C251.745 188.671 241.215 198.819 228.263 198.819Z" fill="#FFFCF6"/>
<path d="M288.124 150.338C276.731 150.338 267.474 159.264 267.046 170.663C266.831 176.293 268.83 181.674 272.664 185.804C276.499 189.94 281.718 192.332 287.354 192.541L288.165 192.558C299.552 192.558 308.809 183.632 309.243 172.233C309.452 166.603 307.453 161.221 303.619 157.086C299.784 152.956 294.571 150.563 288.935 150.355L288.124 150.338ZM288.165 195.454L287.244 195.437C280.837 195.199 274.906 192.477 270.544 187.779C266.183 183.076 263.906 176.959 264.15 170.547C264.636 157.595 275.167 147.441 288.124 147.441L289.045 147.459C295.451 147.696 301.383 150.419 305.745 155.116C310.106 159.82 312.377 165.936 312.139 172.349C311.647 185.3 301.116 195.454 288.165 195.454Z" fill="#FFFCF6"/>
<path d="M206.406 170.605C206.232 170.605 206.046 170.571 205.873 170.501L197.097 167.037C196.35 166.742 195.985 165.902 196.28 165.161C196.576 164.413 197.404 164.054 198.157 164.344L206.938 167.813C207.686 168.103 208.045 168.949 207.749 169.69C207.523 170.258 206.985 170.605 206.406 170.605Z" fill="#FFFCF6"/>
<path d="M309.856 166.774C309.231 166.774 308.646 166.363 308.466 165.72C308.246 164.956 308.692 164.156 309.462 163.936L321.661 160.443C322.443 160.229 323.237 160.669 323.451 161.44C323.671 162.21 323.225 163.009 322.455 163.229L310.25 166.716C310.123 166.757 309.984 166.774 309.856 166.774Z" fill="#FFFCF6"/>
<path d="M249.094 70.773C249.094 70.773 252.419 129.884 268.713 135.248C285.007 140.617 325.067 139.146 327.002 132.682C328.936 126.212 295.937 74.1847 272.258 65.8437C230.733 51.2122 194.889 118.728 199.627 134.993C204.366 151.264 240.047 137.026 247.658 134.935C255.275 132.844 247.571 82.4562 249.094 70.773Z" fill="#000C3E"/>
<path d="M250.797 175.837C250.044 175.837 249.412 175.257 249.355 174.504C249.291 173.705 249.887 173.01 250.681 172.946L265.544 171.788C266.436 171.649 267.039 172.326 267.097 173.114C267.16 173.914 266.569 174.609 265.77 174.672L250.913 175.831C250.872 175.837 250.832 175.837 250.797 175.837Z" fill="#FFFCF6"/>
<path d="M233.162 54.5476C232.82 54.5476 232.484 54.4665 232.166 54.3043C224.195 50.1917 219.44 44.4573 218.038 37.2632C214.962 21.4732 229.304 4.54785 229.918 3.83539C230.7 2.91441 232.067 2.81014 232.982 3.6037C233.892 4.38567 233.996 5.75267 233.214 6.66207C233.075 6.82426 219.625 22.7243 222.307 36.4406C223.442 42.262 227.433 46.9712 234.158 50.4466C235.224 50.9969 235.641 52.306 235.091 53.3718C234.708 54.119 233.95 54.5476 233.162 54.5476Z" fill="#000C3E"/>
<path d="M264.601 59.4011C263.987 59.4011 263.367 59.1347 262.939 58.6192C262.168 57.704 262.29 56.337 263.211 55.5666C263.367 55.4276 279.256 41.9487 278.862 27.9775C278.7 22.0519 275.537 16.7519 269.473 12.2222C268.511 11.504 268.314 10.1428 269.032 9.18122C269.756 8.2139 271.106 8.02854 272.073 8.741C279.256 14.1105 283.009 20.5459 283.206 27.8732C283.647 43.9529 266.715 58.2948 265.991 58.8972C265.586 59.2389 265.094 59.4011 264.601 59.4011Z" fill="#000C3E"/>
<path d="M342.459 242.71C341.81 242.71 341.167 242.42 340.738 241.87C340.003 240.92 340.171 239.559 341.121 238.823C341.868 238.238 359.453 224.209 354.854 200.576C353.053 191.32 349.751 181.073 346.247 170.224C340.147 151.323 333.84 131.774 333.73 112.903C333.724 111.704 334.691 110.725 335.89 110.719H335.902C337.095 110.719 338.068 111.686 338.074 112.879C338.178 131.079 344.382 150.304 350.377 168.892C353.922 179.868 357.27 190.231 359.117 199.748C364.238 226.057 344.619 241.609 343.785 242.258C343.385 242.565 342.922 242.71 342.459 242.71Z" fill="#000C3E"/>
<path d="M349.7 143.634C349.613 143.634 349.527 143.628 349.434 143.616C348.246 143.471 347.401 142.388 347.546 141.195C350.476 117.33 345.929 97.8045 334.02 83.1614C314.836 59.569 282.688 56.6323 282.364 56.6149C281.171 56.5107 280.284 55.4622 280.377 54.2632C280.481 53.0758 281.53 52.178 282.723 52.2822C284.113 52.3923 316.991 55.3638 337.363 80.3868C350.059 95.9799 354.937 116.624 351.855 141.728C351.722 142.823 350.783 143.634 349.7 143.634Z" fill="#000C3E"/>
<path d="M261.213 228.392C257.141 228.392 253.996 227.1 253.793 227.019C252.687 226.556 252.171 225.287 252.634 224.181C253.092 223.075 254.384 222.577 255.467 223.005C255.525 223.028 261.45 225.432 266.617 222.855C267.677 222.327 268.998 222.75 269.531 223.833C270.058 224.905 269.623 226.208 268.552 226.747C266.055 227.992 263.489 228.392 261.213 228.392Z" fill="#EE9B68"/>
<path d="M191.758 187.897C191.55 187.897 191.335 187.868 191.127 187.799C189.974 187.451 189.331 186.241 189.684 185.094C193.635 172.113 184.176 163.494 184.083 163.407C183.191 162.614 183.11 161.235 183.909 160.337C184.703 159.439 186.07 159.358 186.979 160.163C187.454 160.586 198.593 170.752 193.832 186.356C193.554 187.295 192.691 187.897 191.758 187.897Z" fill="#EE9B68"/>
<path d="M320.56 194.261C320.496 194.261 320.438 194.261 320.369 194.255C319.176 194.145 318.289 193.097 318.394 191.898C319.824 175.615 327.905 167.031 328.247 166.672C329.081 165.815 330.442 165.791 331.311 166.614C332.18 167.437 332.209 168.809 331.386 169.678C331.311 169.759 324.012 177.608 322.726 192.28C322.622 193.41 321.672 194.261 320.56 194.261Z" fill="#EE9B68"/>
<path d="M193.996 291.175C193.996 291.175 243.318 350.142 281.356 334.363C319.389 318.585 355.024 275.814 335.903 270.137C316.783 264.467 164.096 267.45 193.996 291.175Z" fill="#FFCEB0"/>
<path d="M326.352 211.727C326.352 211.727 341.232 319.569 327.319 331.757C313.412 343.944 295.82 333.274 272.211 341.355C248.601 349.429 247.79 316.644 249.412 299.823C251.034 283.002 258.732 176.162 326.352 211.727Z" fill="white"/>
<path d="M62.5052 378.639L33.3174 464.817L246.025 536.863C246.025 536.863 278.561 454.275 274.466 452.891C270.376 451.501 62.5052 378.639 62.5052 378.639Z" fill="#128E5A"/>
<path d="M104.543 482.883C104.543 482.883 140.913 457.756 139.639 464.145C138.371 470.54 124.301 482.883 124.301 482.883C124.301 482.883 149.851 463.108 151.519 472.995C153.187 482.883 144.221 492.267 144.221 492.267C144.221 492.267 162.195 477.942 165.097 485.351C167.999 492.759 144.806 525.527 124.301 524.577C103.802 523.627 94.517 489.579 104.543 482.883Z" fill="#FFC6A6"/>
<path d="M117.998 434.436L197.632 466.874C197.632 466.874 211.493 424.728 208.886 419.857C206.274 414.98 177.567 413.167 169.695 405.428C161.829 397.695 164.667 388.242 151.519 389.881C138.37 391.521 117.998 434.436 117.998 434.436Z" fill="white"/>
<path d="M263.145 221.294C262.902 221.294 262.647 221.254 262.404 221.167C256.119 218.89 253.003 216.087 252.887 212.6C252.702 207.033 260.672 203.245 262.271 202.539C263.377 202.064 264.651 202.55 265.132 203.651C265.619 204.751 265.121 206.031 264.02 206.512C261.13 207.792 257.168 210.567 257.231 212.455C257.249 212.976 257.782 214.871 263.887 217.077C265.011 217.489 265.596 218.734 265.19 219.864C264.866 220.744 264.032 221.294 263.145 221.294Z" fill="#EE9B68"/>
<path d="M236.978 179.819C236.462 179.819 235.953 179.64 235.541 179.275C226.447 171.247 220.07 173.396 219.809 173.483C218.715 173.876 217.44 173.32 217.029 172.208C216.606 171.09 217.151 169.857 218.263 169.422C218.616 169.283 227.183 166.097 238.414 176.02C239.312 176.813 239.399 178.186 238.606 179.084C238.177 179.57 237.58 179.819 236.978 179.819Z" fill="#41294A"/>
<path d="M281.62 180.312C281.017 180.312 280.421 180.063 279.992 179.576C279.199 178.678 279.286 177.306 280.183 176.512C291.392 166.607 299.976 169.77 300.329 169.915C301.453 170.349 302.009 171.612 301.569 172.724C301.14 173.842 299.883 174.404 298.783 173.969C298.464 173.859 292.098 171.78 283.056 179.767C282.645 180.132 282.135 180.312 281.62 180.312Z" fill="#41294A"/>
<path d="M422.564 472.554C422.564 472.554 449.26 506.529 490.514 482.261C534.127 445.438 543.902 397.325 526.04 360.886C503.05 322.235 446.253 279.556 431.718 279.628C417.176 279.706 366.49 417.674 422.564 472.554Z" fill="#D9423D"/>
<path d="M369.791 223.92C369.791 223.92 313.373 199.772 292.521 205.367C271.668 210.962 312.145 216.274 320.393 220.271C328.642 224.262 290.169 217.658 285.355 220.711C280.548 223.758 320.335 235.036 320.335 235.036C320.335 235.036 285.066 234.005 282.662 239.345C280.258 244.686 315.128 250.733 315.128 250.733C315.128 250.733 288.559 255.147 289.288 260.823C290.012 266.494 339.039 264.727 355.061 285.024C371.077 305.326 393.794 416.007 461.061 405.858C528.322 395.71 527.685 354.248 479.174 301.028C430.663 247.814 389.357 233.263 369.791 223.92Z" fill="#FFC6A6"/>
<path d="M260.332 8.62875C259.679 8.62875 258.969 8.70462 258.201 8.85635C256.327 9.23237 255.114 10.1428 254.385 11.7227C251.136 18.755 257.986 35.5046 262.881 45.4C265.906 34.4227 269.531 16.0734 264.409 10.2912C263.422 9.17958 262.08 8.62875 260.332 8.62875ZM263.452 53.6593C262.637 53.6593 261.875 53.2206 261.473 52.4949C259.741 49.3911 244.727 21.8259 250.268 9.82279C251.601 6.93664 254.038 5.06312 257.314 4.41003C262.895 3.29845 266.101 5.35998 267.803 7.28298C276.702 17.3301 266.77 48.5731 265.609 52.1024C265.326 52.9567 264.567 53.5636 263.67 53.6494C263.597 53.656 263.525 53.6593 263.452 53.6593Z" fill="#FFD310"/>
<path d="M290.897 19.7826C290.683 19.7826 290.465 19.7958 290.247 19.8288C282.585 20.848 273.326 37.0995 268.431 47.3808C278.607 43.0961 294.746 34.9126 296.89 27.4713C297.372 25.7957 297.049 24.3147 295.878 22.804C294.301 20.7754 292.668 19.7826 290.897 19.7826ZM264.081 53.8029C263.47 53.8029 262.873 53.5588 262.441 53.1036C261.818 52.4505 261.64 51.4939 261.986 50.6627C263.418 47.2356 276.341 17.1076 289.647 15.333C292.197 14.9933 295.967 15.5276 299.457 20.0201C301.508 22.6589 302.128 25.6703 301.248 28.7247C297.586 41.4271 268.194 52.4505 264.856 53.6676C264.602 53.76 264.341 53.8029 264.081 53.8029Z" fill="#FFD310"/>
<path d="M221.511 45.7941C232.526 52.8748 257.702 58.382 277.37 45.7941" stroke="#FFD310" stroke-width="4.87"/>
<defs>
<linearGradient id="paint0_linear" x1="1.14729" y1="445.633" x2="32.866" y2="555.768" gradientUnits="userSpaceOnUse">
<stop stop-color="#FFCBCB"/>
<stop offset="1" stop-color="#FFF1F1"/>
</linearGradient>
<linearGradient id="paint1_linear" x1="472.5" y1="186" x2="144.305" y2="33.7737" gradientUnits="userSpaceOnUse">
<stop stop-color="white"/>
<stop offset="1" stop-color="#FFDDDD"/>
</linearGradient>
<linearGradient id="paint2_linear" x1="518.289" y1="155.009" x2="425.14" y2="85.1444" gradientUnits="userSpaceOnUse">
<stop stop-color="#FFDDDD"/>
<stop offset="1" stop-color="#FFFBFC"/>
</linearGradient>
<linearGradient id="paint3_linear" x1="490.798" y1="498.071" x2="1.15946" y2="214.523" gradientUnits="userSpaceOnUse">
<stop stop-color="#FFE6E6"/>
<stop offset="1" stop-color="#FFF5F5"/>
</linearGradient>
</defs>
</svg>
