<svg width="524" height="562" viewBox="0 0 524 562" fill="none" xmlns="http://www.w3.org/2000/svg">
<path d="M189.917 548.352C160.282 558.852 130.359 563.703 98.4425 557.639C62.8676 550.877 32.0113 520.433 14.5763 490.073C8.09828 478.795 2.94108 466.195 3.61498 453.21C5.18298 423.213 33.5219 419.861 57.5772 424.712C71.1372 427.441 83.5885 433.652 95.8975 439.803C116.334 450.023 140.307 455.049 158.629 469.214C164.778 473.981 169.395 479.708 176.539 483.176C187.652 488.575 200.337 491.125 211.752 496.038C221.497 500.255 232.39 507.19 232.405 517.804C232.406 528.69 221.05 535.626 211.072 539.96C204.008 543.047 196.976 545.862 189.917 548.352Z" fill="url(#paint0_linear)"/>
<path d="M80.8342 161.426C129.381 89.8819 229.768 61.1555 311.138 88.0546C350.375 101.032 383.259 128.055 413.588 156.108C440.323 180.832 466.259 207.5 484.517 239.284C496.983 260.98 505.905 286.987 512.206 311.266C521.626 347.62 513.071 394.461 466.078 391.029C455.051 390.225 445.513 386.26 435.201 382.792C426.86 379.98 418.686 381.666 410.025 380.293C388.227 376.841 367.228 368.816 347.37 359.416C306.902 340.241 269.925 314.19 228.307 297.387C194.2 283.635 157.777 276.535 121.002 276.47C105.488 276.444 89.1752 277.53 75.2974 270.593C41.0917 253.479 56.4737 207.332 69.2484 181.372C72.6328 174.458 76.5044 167.792 80.8342 161.426Z" fill="url(#paint1_linear)"/>
<path d="M461.473 172.225C469.465 179.464 500.867 199.225 501.472 176.035C501.615 170.258 498.994 164.648 495.428 160.417C491.348 155.561 486.722 153.014 483.536 147.356C479.638 140.525 475.2 134.104 470.281 128.178C460.224 115.843 448.483 104.445 434.236 99.3674C424.244 95.8099 407.326 96.7046 402.58 109.511C395.665 128.153 425.232 131.569 434.25 138.363C442.807 144.794 447.654 155.843 454.433 164.625C456.575 167.394 458.932 169.938 461.473 172.225Z" fill="url(#paint2_linear)"/>
<path d="M313.678 149.55C330.607 159.517 343.306 174.436 358.741 186.452C384.438 206.453 419.661 210.545 449.13 224.454C479.178 238.646 501.868 260.702 512.126 292.49C525.379 333.521 526.639 382.316 515.379 424.499C502.979 470.931 473.859 501.775 431.282 522.344C388.73 542.901 341.591 552.494 294.576 554.473C290.039 554.668 285.51 554.773 280.963 554.802C178.827 555.395 42.8785 519.444 8.10548 409.725C7.78678 408.722 7.48128 407.72 7.17498 406.703C3.59188 394.48 1.48508 381.871 0.899677 369.146C-1.28752 324.035 6.60778 274.243 22.4234 231.954C33.0608 203.483 55.9668 179.41 80.1033 162.257C114.015 138.16 155.393 132.01 196.575 129.118C227.071 126.979 261.369 126.197 290.207 137.862C298.312 141.166 306.157 145.073 313.678 149.55Z" fill="url(#paint3_linear)"/>
<path d="M384.811 545.069C253.896 583.135 144.801 546.429 106.618 523.318L71.1621 496.128L83.4352 475.736L159.802 468.938L286.625 462.141L388.902 482.533L495.27 447.186H506.179C489.815 502.653 418.449 535.553 384.811 545.069Z" fill="#FB4C47"/>
<path d="M116.981 492.896H442.565C442.565 492.896 453.964 305.696 412.485 278.303C371.011 250.916 177.045 256.636 134.055 280.029C91.0649 303.427 116.981 492.896 116.981 492.896Z" fill="#FB4C47"/>
<path d="M171.187 238.86C170.717 238.86 170.242 238.708 169.846 238.379C168.952 237.65 148.077 220.078 159.493 184.663C163.487 172.279 167.402 163.511 170.848 155.766C177.065 141.832 181.557 131.756 182.411 110.23C182.456 109.059 183.627 108.182 184.612 108.188C185.783 108.239 186.694 109.223 186.648 110.394C185.766 132.74 180.889 143.665 174.723 157.497C171.317 165.14 167.453 173.801 163.533 185.964C153.038 218.517 171.736 234.436 172.539 235.098C173.439 235.845 173.569 237.18 172.828 238.08C172.409 238.594 171.798 238.86 171.187 238.86Z" fill="#000C3E"/>
<path d="M286.764 27.6484C286.216 42.3461 273.854 53.8078 259.157 53.259C244.465 52.7102 232.997 40.349 233.546 25.657C234.1 10.9593 246.456 -0.50801 261.154 0.0407525C275.846 0.595165 287.313 12.9507 286.764 27.6484Z" fill="#000C3E"/>
<path d="M168.805 228.519C168.805 228.519 176.618 244.631 208.513 250.294C240.415 255.962 265.449 244.421 290.075 253.354C314.701 262.281 350.28 250.644 357.335 240.297C364.384 229.95 362.907 115.361 343.491 96.1433C324.07 76.9311 222.329 60.8927 200.282 83.3748C178.236 105.863 154.82 215.614 168.805 228.519Z" fill="#000C3E"/>
<path d="M352.981 138.113C351.165 186.539 310.438 224.33 262.011 222.514C213.585 220.698 175.794 179.971 177.61 131.539C179.426 83.1125 220.153 45.3274 268.579 47.1434C317.006 48.9537 354.797 89.6863 352.981 138.113Z" fill="#000C3E"/>
<path d="M301.287 211.481C301.287 211.481 306.984 279.815 301.287 287.407C295.59 295 259.525 289.308 250.037 287.407C240.544 285.512 236.748 211.481 242.44 211.481C248.137 211.481 300.195 196.246 301.287 211.481Z" fill="#FFCEB0"/>
<path d="M193.651 131.538C193.651 131.538 197.26 238.048 269.267 242.647C341.278 247.241 341.205 97.1754 315.147 82.902C289.084 68.6286 180.339 71.3045 193.651 131.538Z" fill="#FFCEB0"/>
<path d="M267.587 154.337C267.587 154.337 281.34 187.121 277.799 189.294C274.263 191.466 263.904 191.076 261.115 188.666C258.326 186.256 261.964 150.671 267.587 154.337Z" fill="#EE9B68"/>
<path d="M246.021 165.31C245.84 169.043 242.667 171.917 238.933 171.736C235.205 171.555 232.325 168.382 232.506 164.648C232.687 160.92 235.861 158.04 239.595 158.221C243.323 158.402 246.202 161.576 246.021 165.31Z" fill="#41294A"/>
<path d="M304.108 162.122C303.927 165.856 300.753 168.73 297.02 168.549C293.291 168.368 290.412 165.194 290.593 161.46C290.774 157.732 293.948 154.852 297.681 155.033C301.41 155.214 304.289 158.388 304.108 162.122Z" fill="#41294A"/>
<path d="M250.35 74.7361C250.35 74.7361 224.53 87.2217 219.619 110.66C214.703 134.104 217.249 194.122 189.89 191.367C189.89 191.367 136.921 72.5863 250.35 74.7361Z" fill="#000C3E"/>
<path d="M263.96 75.2465C261.618 76.9268 290.583 76.8532 307.142 96.931C323.707 117.003 327.639 167.178 330.196 168.106C332.758 169.039 342.987 105.937 324.827 86.9798C306.673 68.0222 277.288 65.7027 263.96 75.2465Z" fill="#000C3E"/>
<path d="M243.442 232.933C243.442 232.933 271.457 248.864 300.547 233.974C300.547 233.974 302.81 251.857 300.547 255.981C298.284 260.105 252.211 263.052 243.142 242.726C243.142 242.726 240.823 232.05 243.442 232.933Z" fill="#EE9B68"/>
<path d="M323.988 172.384C323.988 172.384 330.885 145.721 342.906 155.208C354.934 164.701 344.055 192.563 332.169 195.092C320.283 197.621 317.42 186.131 323.988 172.384Z" fill="#FFCEB0"/>
<path d="M210.417 168.128C210.417 168.128 205.535 141.023 192.834 149.589C180.133 158.148 188.896 186.752 200.562 190.163C212.227 193.569 215.933 182.328 210.417 168.128Z" fill="#FFCEB0"/>
<path d="M294.647 138.027C294.647 138.027 307.535 131.612 315.149 141.45C321.848 150.094 306.267 142.847 300.44 143.809C294.619 144.77 286.976 144.109 294.647 138.027Z" fill="#41294A"/>
<path d="M244.004 139.269C244.004 139.269 231.094 132.899 223.513 142.765C216.849 151.432 232.401 144.129 238.228 145.068C244.055 146.012 251.698 145.322 244.004 139.269Z" fill="#41294A"/>
<path d="M238.699 150.141C227.571 150.141 218.531 158.859 218.112 169.992C217.909 175.491 219.855 180.747 223.606 184.781C227.351 188.82 232.442 191.156 237.947 191.36L238.739 191.377C249.867 191.377 258.907 182.659 259.32 171.531C259.529 166.032 257.578 160.771 253.833 156.737C250.087 152.698 244.996 150.361 239.491 150.158L238.699 150.141ZM238.739 194.206L237.839 194.189C231.582 193.957 225.789 191.298 221.529 186.71C217.269 182.116 215.052 176.142 215.284 169.879C215.759 157.229 226.044 147.312 238.699 147.312L239.599 147.329C245.856 147.561 251.649 150.22 255.909 154.808C260.163 159.402 262.386 165.376 262.149 171.644C261.679 184.294 251.394 194.206 238.739 194.206Z" fill="#FFFCF6"/>
<path d="M297.199 146.853C286.077 146.853 277.037 155.571 276.618 166.705C276.409 172.204 278.36 177.459 282.106 181.493C285.851 185.532 290.948 187.869 296.447 188.072L297.239 188.089C308.373 188.089 317.407 179.371 317.826 168.238C318.035 162.739 316.083 157.483 312.338 153.45C308.593 149.41 303.496 147.074 297.991 146.87L297.199 146.853ZM297.239 190.918L296.345 190.901C290.082 190.669 284.289 188.01 280.029 183.422C275.769 178.828 273.552 172.854 273.789 166.592C274.265 153.942 284.55 144.025 297.199 144.025L298.099 144.041C304.356 144.273 310.149 146.932 314.409 151.52C318.669 156.114 320.886 162.088 320.655 168.351C320.179 181.001 309.894 190.918 297.239 190.918Z" fill="#FFFCF6"/>
<path d="M217.39 166.647C217.214 166.647 217.039 166.613 216.869 166.545L208.293 163.162C207.568 162.874 207.212 162.053 207.495 161.329C207.783 160.6 208.609 160.249 209.333 160.532L217.91 163.92C218.634 164.203 218.991 165.029 218.702 165.753C218.487 166.308 217.955 166.647 217.39 166.647Z" fill="#FFFCF6"/>
<path d="M318.43 162.906C317.819 162.906 317.247 162.504 317.072 161.876C316.857 161.135 317.293 160.349 318.045 160.134L329.954 156.723C330.678 156.491 331.487 156.938 331.702 157.696C331.917 158.442 331.481 159.229 330.729 159.444L318.815 162.85C318.69 162.889 318.554 162.906 318.43 162.906Z" fill="#FFFCF6"/>
<path d="M259.086 69.1435C259.086 69.1435 262.333 126.876 278.247 132.115C294.161 137.359 333.287 135.922 335.177 129.609C337.066 123.29 304.836 72.4757 281.709 64.3292C241.152 50.0388 206.145 115.98 210.772 131.866C215.4 147.757 250.249 133.852 257.683 131.81C265.122 129.767 257.598 80.5543 259.086 69.1435Z" fill="#000C3E"/>
<g opacity="0.210007">
<g opacity="0.210007">
<path opacity="0.210007" d="M219.459 189.866C219.459 189.866 256.317 169.748 272.208 173.063C288.094 176.379 316.092 177.499 317.223 183.252C318.36 189.006 281.645 185.555 270.307 186.386C258.964 187.218 215.222 199.211 219.459 189.866Z" fill="#DB5C5D"/>
</g>
</g>
<path d="M240.174 177.083C239.319 177.083 238.51 176.563 238.188 175.714C237.775 174.617 238.324 173.395 239.421 172.976C242.714 171.731 243.444 170.719 243.449 170.713C243.857 169.615 245.016 169.169 246.114 169.587C247.217 169.989 247.715 171.335 247.308 172.438C246.974 173.344 245.701 175.131 240.926 176.947C240.677 177.038 240.423 177.083 240.174 177.083Z" fill="#EE9B68"/>
<path d="M295.87 175.553C294.62 175.553 292.651 175.14 289.641 173.584C288.6 173.053 288.193 171.768 288.73 170.727C289.268 169.692 290.546 169.279 291.587 169.817C294.733 171.44 295.972 171.31 295.966 171.299C297.058 170.891 298.155 171.44 298.585 172.532C299.015 173.618 298.348 174.897 297.262 175.327C296.956 175.446 296.509 175.553 295.87 175.553Z" fill="#EE9B68"/>
<path d="M260.744 171.757C260.014 171.757 259.392 171.191 259.335 170.456C259.279 169.675 259.856 168.996 260.636 168.934L275.147 167.802C275.951 167.678 276.613 168.323 276.669 169.098C276.731 169.879 276.149 170.558 275.368 170.62L260.857 171.751C260.817 171.757 260.784 171.757 260.744 171.757Z" fill="#FFFCF6"/>
<path d="M243.517 53.2969C243.189 53.2969 242.855 53.2177 242.55 53.0593C234.76 49.0426 230.121 43.4418 228.752 36.4155C225.742 20.9936 239.755 4.46301 240.349 3.76715C241.118 2.87896 242.459 2.77147 243.342 3.54086C244.23 4.3046 244.337 5.63972 243.574 6.52792C243.438 6.68633 230.296 22.2156 232.915 35.6121C234.03 41.2977 237.922 45.8971 244.49 49.2915C245.531 49.8289 245.944 51.1075 245.401 52.1484C245.028 52.8782 244.287 53.2969 243.517 53.2969Z" fill="#000C3E"/>
<path d="M274.231 58.0375C273.625 58.0375 273.02 57.7773 272.601 57.2738C271.849 56.38 271.968 55.0448 272.867 54.2924C273.026 54.1566 288.538 40.9921 288.153 27.3523C287.995 21.5649 284.906 16.3828 278.983 11.9588C278.044 11.2573 277.851 9.92775 278.553 8.98864C279.249 8.05518 280.595 7.86849 281.523 8.55868C288.544 13.803 292.204 20.0883 292.396 27.2448C292.832 42.9495 276.29 56.957 275.588 57.5454C275.192 57.8791 274.706 58.0375 274.231 58.0375Z" fill="#000C3E"/>
<path d="M350.272 237.072C349.638 237.072 349.01 236.789 348.592 236.251C347.873 235.323 348.037 233.994 348.965 233.275C349.695 232.704 366.87 219.002 362.378 195.92C360.619 186.886 357.389 176.878 353.972 166.293C348.009 147.827 341.848 128.728 341.741 110.291C341.735 109.12 342.68 108.164 343.851 108.158H343.862C345.027 108.158 345.978 109.103 345.983 110.269C346.085 128.05 352.144 146.826 358.005 164.992C361.468 175.701 364.737 185.822 366.542 195.111C371.543 220.807 352.382 235.997 351.567 236.63C351.177 236.93 350.724 237.072 350.272 237.072Z" fill="#000C3E"/>
<path d="M357.342 140.305C357.257 140.305 357.172 140.299 357.082 140.288C355.922 140.147 355.096 139.089 355.238 137.923C358.1 114.598 353.648 95.516 342 81.2143C323.234 58.1552 291.893 55.3322 291.576 55.3152C290.405 55.2134 289.539 54.1894 289.635 53.024C289.732 51.8529 290.75 51.0043 291.927 51.0835C293.279 51.191 325.395 54.0932 345.292 78.5328C357.693 93.7623 362.456 113.925 359.447 138.444C359.317 139.513 358.4 140.305 357.342 140.305Z" fill="#000C3E"/>
<path d="M271.189 222.768C268.971 222.768 266.555 222.7 264.377 222.621C262.821 222.558 261.605 221.24 261.662 219.679C261.724 218.117 263.099 217.043 264.598 216.963C269.322 217.15 275.126 217.178 276.269 216.89C277.751 216.369 279.318 217.133 279.844 218.604C280.376 220.069 279.567 221.71 278.102 222.236C277.004 222.638 274.294 222.768 271.189 222.768Z" fill="#DB5C5D"/>
<path d="M203.084 183.537C202.88 183.537 202.671 183.508 202.467 183.441C201.341 183.101 200.713 181.919 201.053 180.799C204.917 168.121 195.684 159.702 195.588 159.618C194.717 158.843 194.638 157.496 195.418 156.619C196.193 155.742 197.545 155.674 198.411 156.449C198.881 156.862 209.76 166.791 205.115 182.032C204.838 182.948 203.995 183.537 203.084 183.537Z" fill="#EE9B68"/>
<path d="M328.881 189.752C328.818 189.752 328.762 189.752 328.694 189.746C327.528 189.639 326.663 188.615 326.765 187.444C328.168 171.541 336.06 163.157 336.393 162.806C337.202 161.969 338.543 161.946 339.386 162.75C340.235 163.553 340.263 164.894 339.46 165.742C339.386 165.822 332.258 173.487 330.996 187.817C330.895 188.926 329.967 189.752 328.881 189.752Z" fill="#EE9B68"/>
<path d="M211.052 169.884C211.052 169.884 229.489 185.283 230.938 187.625C232.386 189.968 231.809 219.946 228.912 219.578C226.016 219.216 208.45 190.658 206.526 190.714C204.603 190.771 205.457 193.854 205.457 193.854C205.457 193.854 220.517 218.729 229.563 225.744C238.609 232.765 295.08 233.088 306.581 226.587C318.088 220.081 327.836 195.738 326.959 195.235C326.077 194.725 323.887 192.74 323.519 193.577C323.208 194.29 307.594 222.112 305.642 221.241C303.685 220.37 305.857 189.481 305.642 186.562C305.427 183.637 328.255 161.494 328.255 161.494L329.901 158.717L327.593 158.083C327.593 158.083 305.212 180.424 299.606 180.294C294 180.163 235.22 184.412 232.499 183.428C229.778 182.443 211.59 162.733 209.321 163.542C207.047 164.346 210.419 168.125 211.052 169.884Z" fill="#FFFCF6"/>
<path d="M203.686 284.324C203.686 284.324 251.858 341.915 289.009 326.504C326.155 311.094 360.959 269.32 342.284 263.776C323.609 258.238 174.483 261.151 203.686 284.324Z" fill="#FFCEB0"/>
<path d="M415.202 250.202C415.202 250.202 408.673 199.366 406.484 196.073C404.295 192.781 387.736 217.78 392.205 231.952C396.68 246.124 334.794 246.474 339.62 267.174C344.446 287.869 341.487 315.839 367.154 317.27C392.816 318.707 422.104 311.743 428.106 302.21C434.114 292.683 415.202 250.202 415.202 250.202Z" fill="url(#paint4_linear)"/>
<path d="M453.775 295.98C453.775 295.98 525.337 379.575 511.374 434.555C497.411 489.536 429.337 498.435 415.374 491.317C401.411 484.199 406.645 248.348 453.775 295.98Z" fill="#D9423D"/>
<path d="M122.66 285.523C122.66 285.523 35.849 378.767 41.4836 461.997C46.1339 530.711 151.603 520.256 164.581 513.767C177.564 507.278 166.464 242.097 122.66 285.523Z" fill="#D9423D"/>
<path d="M420.156 262.288C420.156 262.288 507.296 434.649 483.36 464.157C459.423 493.666 416.875 497.038 399.897 472.564C389.98 458.279 403.829 332.059 389.188 316.586C374.547 301.114 415.511 254.169 420.156 262.288Z" fill="#FFCEB0"/>
<path d="M286.09 439.982C286.09 439.982 345.339 462.334 354.815 481.172C364.291 500.011 329.131 477.037 320.854 473.62C312.583 470.209 342.403 493.958 343.308 499.451C344.207 504.939 310.128 483.26 310.128 483.26C310.128 483.26 333.804 508.305 331.473 513.527C329.142 518.754 302.066 497.256 302.066 497.256C302.066 497.256 316.113 519.501 311.508 522.657C306.903 525.814 276.325 488.923 251.116 490.433C225.907 491.95 130.446 547.323 94.132 491.689C57.8118 436.055 88.457 409.574 158.783 410.349C229.109 411.129 266.561 431.79 286.09 439.982Z" fill="#FFCEB0"/>
<path d="M268.343 9.20772C267.71 9.20772 267.023 9.28126 266.278 9.42834C264.462 9.79285 263.285 10.6753 262.578 12.2069C259.429 19.0238 266.07 35.2603 270.815 44.8526C273.747 34.2115 277.261 16.4243 272.295 10.8192C271.339 9.74169 270.038 9.20772 268.343 9.20772ZM271.368 52.8589C270.578 52.8589 269.84 52.4337 269.449 51.7302C267.771 48.7215 253.216 22.0006 258.588 10.3652C259.88 7.56744 262.243 5.7513 265.418 5.11821C270.828 4.04068 273.935 6.03908 275.585 7.90317C284.212 17.6425 274.585 47.9285 273.459 51.3497C273.184 52.1779 272.449 52.7662 271.579 52.8493C271.509 52.8557 271.438 52.8589 271.368 52.8589Z" fill="#FFD310"/>
<path d="M297.974 20.0203C297.766 20.0203 297.555 20.0331 297.344 20.0651C289.917 21.0531 280.941 36.8068 276.196 46.7731C286.061 42.6197 301.705 34.6869 303.784 27.4735C304.251 25.8492 303.937 24.4136 302.802 22.9491C301.274 20.9827 299.691 20.0203 297.974 20.0203ZM271.979 52.9985C271.388 52.9985 270.809 52.7619 270.39 52.3207C269.786 51.6876 269.613 50.7603 269.949 49.9546C271.336 46.6324 283.864 17.4272 296.762 15.707C299.234 15.3776 302.889 15.8956 306.271 20.2505C308.26 22.8084 308.861 25.7277 308.008 28.6885C304.458 41.0018 275.966 51.6876 272.73 52.8674C272.484 52.9569 272.232 52.9985 271.979 52.9985Z" fill="#FFD310"/>
<path d="M230.713 45.2343C241.39 52.0981 265.795 57.4367 284.861 45.2343" stroke="#FFD310" stroke-width="3.87"/>
<defs>
<linearGradient id="paint0_linear" x1="20.0003" y1="428.022" x2="108.957" y2="582.82" gradientUnits="userSpaceOnUse">
<stop stop-color="#FFC5C6"/>
<stop offset="1" stop-color="#FFF6F6"/>
</linearGradient>
<linearGradient id="paint1_linear" x1="519" y1="252.022" x2="160.277" y2="18.7166" gradientUnits="userSpaceOnUse">
<stop stop-color="white"/>
<stop offset="1" stop-color="#FFD7D7"/>
</linearGradient>
<linearGradient id="paint2_linear" x1="502.287" y1="175.628" x2="384.22" y2="125.199" gradientUnits="userSpaceOnUse">
<stop stop-color="#FFBEBF"/>
<stop offset="1" stop-color="#FFFBFC"/>
</linearGradient>
<linearGradient id="paint3_linear" x1="534" y1="429.022" x2="22.0002" y2="225.022" gradientUnits="userSpaceOnUse">
<stop stop-color="#FFD7D7"/>
<stop offset="1" stop-color="#FFF8F8"/>
</linearGradient>
<linearGradient id="paint4_linear" x1="429" y1="329" x2="384.318" y2="195.778" gradientUnits="userSpaceOnUse">
<stop stop-color="#FFC4A0"/>
<stop offset="1" stop-color="#FFCEB0"/>
</linearGradient>
</defs>
</svg>
