<svg width="533" height="572" viewBox="0 0 533 572" fill="none" xmlns="http://www.w3.org/2000/svg">
<path d="M193.42 557.802C163.293 568.477 132.873 573.409 100.426 567.244C64.2603 560.37 32.8912 529.42 15.1667 498.555C8.58099 487.09 3.33809 474.28 4.02319 461.08C5.61729 430.584 34.427 427.176 58.882 432.109C72.6673 434.883 85.3251 441.197 97.8391 447.45C118.616 457.84 142.987 462.949 161.613 477.35C167.864 482.196 172.558 488.018 179.82 491.544C191.118 497.033 204.014 499.624 215.618 504.62C225.526 508.906 236.6 515.957 236.615 526.747C236.616 537.813 225.071 544.865 214.927 549.271C207.746 552.409 200.598 555.271 193.42 557.802Z" fill="url(#paint0_linear)"/>
<path d="M82.5252 164.448C131.879 91.7149 233.933 62.5113 316.655 89.8573C356.544 103.051 389.974 130.523 420.808 159.041C447.987 184.176 474.354 211.287 492.915 243.6C505.588 265.656 514.659 292.095 521.064 316.777C530.641 353.735 521.944 401.355 474.169 397.866C462.96 397.048 453.263 393.018 442.78 389.491C434.3 386.633 425.99 388.347 417.186 386.951C395.026 383.442 373.677 375.283 353.49 365.727C312.349 346.234 274.758 319.75 232.448 302.668C197.775 288.687 160.747 281.469 123.361 281.403C107.589 281.377 91.0052 282.481 76.8965 275.429C42.1225 258.03 57.76 211.116 70.747 184.725C74.1877 177.696 78.1236 170.919 82.5252 164.448Z" fill="url(#paint1_linear)"/>
<path d="M469.489 175.426C477.614 182.785 509.538 202.875 510.152 179.3C510.297 173.426 507.634 167.724 504.008 163.422C499.86 158.485 495.158 155.896 491.919 150.144C487.955 143.199 483.444 136.672 478.443 130.647C468.219 118.107 456.283 106.52 441.8 101.358C431.641 97.7415 414.443 98.651 409.617 111.67C402.587 130.622 432.646 134.095 441.813 141.002C450.513 147.539 455.44 158.773 462.332 167.7C464.51 170.515 466.906 173.102 469.489 175.426Z" fill="url(#paint2_linear)"/>
<path d="M319.238 152.375C336.448 162.507 349.359 177.674 365.05 189.889C391.174 210.223 426.982 214.383 456.94 228.524C487.488 242.951 510.554 265.373 520.984 297.69C534.457 339.402 535.737 389.008 524.29 431.892C511.684 479.096 482.08 510.452 438.796 531.362C395.537 552.261 347.615 562.013 299.819 564.025C295.207 564.223 290.602 564.33 285.979 564.36C182.147 564.963 43.9392 528.415 8.58854 416.872C8.26454 415.853 7.95404 414.834 7.64254 413.801C3.99994 401.374 1.85825 388.555 1.26305 375.619C-0.960455 329.759 7.06604 279.14 23.1443 236.148C33.9585 207.204 57.245 182.731 81.783 165.293C116.258 140.795 158.323 134.543 200.19 131.604C231.192 129.428 266.06 128.634 295.377 140.492C303.617 143.851 311.593 147.823 319.238 152.375Z" fill="url(#paint3_linear)"/>
<path d="M391.553 554.465C258.463 593.163 147.555 555.847 108.738 532.352L72.6924 504.71L85.1698 483.979L162.805 477.069L291.736 470.159L395.712 490.89L503.847 454.956H514.938C498.302 511.344 425.749 544.79 391.553 554.465Z" fill="#FB4C47"/>
<path d="M117.119 479.7H433.999C433.999 479.7 445.094 297.505 404.723 270.844C364.358 244.189 175.577 249.756 133.736 272.523C91.8962 295.297 117.119 479.7 117.119 479.7Z" fill="#FB4C47"/>
<path d="M169.878 232.455C169.415 232.455 168.953 232.306 168.573 231.987C167.697 231.277 147.38 214.175 158.502 179.707C162.384 167.654 166.189 159.12 169.547 151.582C175.598 138.015 179.97 128.214 180.796 107.264C180.846 106.124 181.732 105.27 182.944 105.276C184.083 105.325 184.97 106.283 184.926 107.423C184.061 129.172 179.326 139.804 173.324 153.261C170.004 160.705 166.249 169.135 162.422 180.973C152.165 212.787 170.99 228.639 171.183 228.794C172.064 229.515 172.201 230.814 171.474 231.695C171.067 232.196 170.472 232.455 169.878 232.455Z" fill="#000C3E"/>
<path d="M282.359 26.888C281.825 41.1928 269.794 52.3481 255.489 51.814C241.19 51.2799 230.029 39.2491 230.563 24.9499C231.103 10.6451 243.128 -0.515692 257.433 0.0183964C271.732 0.557993 282.893 12.5832 282.359 26.888Z" fill="#000C3E"/>
<path d="M167.556 222.389C167.556 222.389 175.16 238.07 206.203 243.582C237.252 249.099 261.616 237.866 285.584 246.56C309.552 255.249 344.18 243.923 351.046 233.852C357.907 223.782 356.469 112.256 337.573 93.5521C318.67 74.8535 219.649 59.2438 198.192 81.1249C176.735 103.012 153.945 209.829 167.556 222.389Z" fill="#000C3E"/>
<path d="M346.807 134.4C345.04 181.532 305.402 218.312 258.27 216.545C211.138 214.778 174.357 175.139 176.125 128.002C177.892 80.8699 217.53 44.0948 264.662 45.8623C311.794 47.6242 348.575 87.2679 346.807 134.4Z" fill="#000C3E"/>
<path d="M296.497 205.807C296.497 205.807 302.041 272.315 296.497 279.704C290.952 287.093 255.851 281.554 246.617 279.704C237.378 277.859 233.683 205.807 239.222 205.807C244.767 205.807 295.434 190.979 296.497 205.807Z" fill="#FFCEB0"/>
<path d="M191.738 128C191.738 128 195.251 231.663 265.332 236.139C335.419 240.61 335.348 94.5561 309.987 80.6642C284.62 66.7724 178.782 69.3768 191.738 128Z" fill="#FFCEB0"/>
<path d="M263.697 150.19C263.697 150.19 277.082 182.098 273.636 184.212C270.194 186.326 260.113 185.946 257.398 183.601C254.684 181.255 258.224 146.622 263.697 150.19Z" fill="#EE9B68"/>
<path d="M242.709 171.497C242.533 175.131 239.444 177.928 235.81 177.752C232.182 177.576 229.379 174.487 229.555 170.853C229.732 167.224 232.821 164.421 236.455 164.598C240.083 164.774 242.886 167.863 242.709 171.497Z" fill="#41294A"/>
<path d="M299.244 168.396C299.068 172.03 295.979 174.827 292.345 174.651C288.716 174.475 285.914 171.386 286.09 167.752C286.266 164.123 289.355 161.321 292.989 161.497C296.618 161.673 299.42 164.762 299.244 168.396Z" fill="#41294A"/>
<path d="M246.922 72.7163C246.922 72.7163 221.792 84.8682 217.013 107.68C212.228 130.497 214.706 188.911 188.078 186.229C188.078 186.229 136.525 70.624 246.922 72.7163Z" fill="#000C3E"/>
<path d="M260.167 73.2132C257.887 74.8485 286.078 74.777 302.195 94.318C318.316 113.854 322.143 162.687 324.632 163.59C327.126 164.498 337.081 103.084 319.407 84.6328C301.738 66.182 273.139 63.9245 260.167 73.2132Z" fill="#000C3E"/>
<path d="M240.198 226.685C240.198 226.685 267.464 242.191 295.776 227.699C295.776 227.699 297.978 245.103 295.776 249.117C293.573 253.131 248.732 256 239.906 236.216C239.906 236.216 237.648 225.827 240.198 226.685Z" fill="#EE9B68"/>
<path d="M318.59 167.755C318.59 167.755 325.302 141.805 337.002 151.039C348.708 160.278 338.12 187.396 326.552 189.857C314.984 192.318 312.198 181.135 318.59 167.755Z" fill="#FFCEB0"/>
<path d="M208.053 163.613C208.053 163.613 203.301 137.233 190.94 145.569C178.579 153.9 187.108 181.739 198.461 185.059C209.815 188.373 213.421 177.433 208.053 163.613Z" fill="#FFCEB0"/>
<path d="M290.035 134.317C290.035 134.317 302.578 128.073 309.989 137.648C316.508 146.061 301.345 139.008 295.673 139.944C290.008 140.88 282.569 140.236 290.035 134.317Z" fill="#41294A"/>
<path d="M240.743 135.525C240.743 135.525 228.179 129.325 220.8 138.927C214.314 147.363 229.45 140.254 235.122 141.168C240.793 142.088 248.232 141.416 240.743 135.525Z" fill="#41294A"/>
<path d="M235.578 146.103C224.753 146.103 215.955 154.588 215.542 165.424C215.344 170.776 217.243 175.891 220.888 179.823C224.533 183.749 229.489 186.023 234.846 186.221L235.617 186.237C246.447 186.237 255.246 177.752 255.654 166.922C255.857 161.57 253.958 156.449 250.313 152.524C246.668 148.592 241.707 146.318 236.349 146.12L235.578 146.103ZM235.617 188.99L234.741 188.974C228.652 188.748 223.014 186.16 218.867 181.695C214.721 177.224 212.563 171.409 212.789 165.314C213.257 153.003 223.267 143.35 235.578 143.35L236.454 143.367C242.544 143.593 248.182 146.181 252.328 150.646C256.474 155.122 258.632 160.931 258.407 167.032C257.944 179.344 247.934 188.99 235.617 188.99Z" fill="#FFFCF6"/>
<path d="M292.522 142.906C281.698 142.906 272.899 151.391 272.486 162.227C272.073 173.283 280.734 182.616 291.79 183.023L292.561 183.04C303.386 183.04 312.185 174.555 312.598 163.719C312.796 158.367 310.896 153.252 307.251 149.321C303.606 145.395 298.651 143.121 293.293 142.923L292.522 142.906ZM292.561 185.793L291.686 185.776C279.11 185.308 269.265 174.693 269.733 162.117C270.201 149.805 280.211 140.153 292.522 140.153L293.398 140.169C299.488 140.395 305.126 142.983 309.272 147.448C313.418 151.919 315.576 157.734 315.351 163.829C314.883 176.141 304.873 185.793 292.561 185.793Z" fill="#FFFCF6"/>
<path d="M214.84 162.172C214.675 162.172 214.499 162.139 214.334 162.073L205.992 158.78C205.282 158.499 204.935 157.701 205.216 156.996C205.496 156.286 206.284 155.945 207 156.22L215.347 159.518C216.057 159.793 216.398 160.597 216.118 161.302C215.903 161.842 215.391 162.172 214.84 162.172Z" fill="#FFFCF6"/>
<path d="M313.183 158.53C312.588 158.53 312.032 158.139 311.861 157.528C311.652 156.801 312.076 156.042 312.808 155.832L324.404 152.512C325.147 152.308 325.902 152.727 326.105 153.459C326.315 154.191 325.891 154.951 325.158 155.161L313.557 158.475C313.436 158.514 313.304 158.53 313.183 158.53Z" fill="#FFFCF6"/>
<path d="M255.423 67.275C255.423 67.275 258.584 123.464 274.072 128.563C289.561 133.667 327.641 132.269 329.48 126.124C331.319 119.974 299.951 70.518 277.442 62.5893C237.969 48.681 203.897 112.86 208.401 128.321C212.905 143.787 246.823 130.253 254.058 128.266C261.298 126.278 253.975 78.3807 255.423 67.275Z" fill="#000C3E"/>
<path d="M257.038 167.145C256.322 167.145 255.722 166.595 255.667 165.879C255.607 165.119 256.174 164.458 256.928 164.398L271.057 163.297C271.883 163.164 272.483 163.809 272.532 164.557C272.593 165.317 272.031 165.978 271.271 166.039L257.148 167.14C257.11 167.145 257.071 167.145 257.038 167.145Z" fill="#FFFCF6"/>
<path d="M240.274 51.8511C239.95 51.8511 239.63 51.7741 239.327 51.6199C231.751 47.7106 227.231 42.2596 225.898 35.421C222.974 20.4115 236.607 4.32273 237.191 3.64549C237.94 2.77002 239.234 2.67091 240.104 3.42524C240.968 4.16856 241.067 5.46799 240.324 6.33245C240.192 6.48662 227.407 21.6008 229.956 34.6392C231.035 40.1728 234.829 44.6492 241.221 47.9528C242.235 48.4759 242.631 49.7203 242.108 50.7334C241.745 51.4437 241.023 51.8511 240.274 51.8511Z" fill="#000C3E"/>
<path d="M270.159 56.4641C269.575 56.4641 268.986 56.2108 268.578 55.7207C267.846 54.8508 267.962 53.5513 268.837 52.819C268.986 52.6869 284.089 39.8743 283.715 26.5936C283.56 20.9609 280.554 15.9228 274.789 11.6171C273.875 10.9343 273.688 9.6404 274.371 8.7264C275.059 7.80688 276.342 7.63068 277.261 8.30793C284.089 13.4121 287.657 19.5293 287.844 26.4945C288.263 41.7794 272.168 55.4124 271.48 55.985C271.095 56.3099 270.627 56.4641 270.159 56.4641Z" fill="#41294A"/>
<path d="M344.168 230.712C343.551 230.712 342.94 230.437 342.532 229.914C341.833 229.011 341.993 227.717 342.896 227.018C343.606 226.462 360.323 213.126 355.951 190.661C354.238 181.863 351.1 172.122 347.769 161.809C341.971 143.843 335.975 125.26 335.87 107.321C335.865 106.182 336.784 105.251 337.924 105.246H337.935C339.069 105.246 339.994 106.165 340 107.299C340.099 124.599 345.996 142.874 351.695 160.543C355.064 170.977 358.247 180.827 360.003 189.874C364.871 214.882 346.222 229.666 345.429 230.283C345.049 230.575 344.608 230.712 344.168 230.712Z" fill="#000C3E"/>
<path d="M351.051 136.534C350.969 136.534 350.886 136.528 350.798 136.517C349.669 136.379 348.866 135.35 349.003 134.216C351.789 111.531 347.467 92.9696 336.146 79.0502C317.91 56.624 287.352 53.8324 287.043 53.8159C285.909 53.7168 285.067 52.7202 285.155 51.5805C285.254 50.4517 286.272 49.5983 287.385 49.6974C288.706 49.802 319.959 52.6266 339.323 76.4128C351.393 91.2352 356.029 110.859 353.1 134.722C352.973 135.763 352.081 136.534 351.051 136.534Z" fill="#000C3E"/>
<path d="M267.245 216.102C264.921 216.102 262.454 216.025 260.604 215.959C259.465 215.909 258.578 214.951 258.622 213.812C258.661 212.672 259.536 211.752 260.764 211.829C265.516 212.017 271.275 212.039 272.321 211.736C273.395 211.433 274.557 212.011 274.904 213.074C275.245 214.131 274.738 215.254 273.698 215.629C272.696 215.987 270.08 216.102 267.245 216.102Z" fill="#EE9B68"/>
<path d="M200.921 178.609C200.722 178.609 200.519 178.581 200.32 178.515C199.225 178.185 198.613 177.034 198.949 175.944C202.704 163.605 193.713 155.412 193.625 155.329C192.777 154.575 192.7 153.265 193.46 152.411C194.214 151.558 195.519 151.481 196.378 152.246C196.829 152.648 207.418 162.311 202.892 177.144C202.627 178.036 201.807 178.609 200.921 178.609Z" fill="#EE9B68"/>
<path d="M323.354 184.659C323.293 184.659 323.238 184.659 323.172 184.654C322.038 184.549 321.195 183.553 321.294 182.413C322.654 166.935 330.335 158.775 330.66 158.434C331.453 157.619 332.747 157.597 333.573 158.379C334.399 159.161 334.426 160.466 333.644 161.292C333.573 161.369 326.635 168.829 325.413 182.776C325.314 183.85 324.411 184.659 323.354 184.659Z" fill="#EE9B68"/>
<path d="M203.043 276.78C203.043 276.78 249.927 332.832 286.086 317.834C322.238 302.835 356.112 262.178 337.936 256.782C319.761 251.392 174.621 254.228 203.043 276.78Z" fill="#FFCEB0"/>
<path d="M326.872 350.85C326.872 350.85 299.551 326.315 270.985 340.185C242.42 354.049 251.114 382.852 225.032 377.516C198.949 372.181 151.691 380.242 162.934 408.449C174.177 436.657 102.257 458.725 129.578 494.994C156.899 531.257 230.642 503.38 253.3 510.851C275.952 518.318 329.355 521.517 335.566 500.181C341.777 478.85 381.52 475.651 375.309 447.917C369.098 420.183 362.887 381.784 326.872 350.85Z" fill="white"/>
<path d="M236.621 415.381C236.621 415.381 264.515 448.875 264.443 481.113C264.399 501.639 249.291 467.045 244.104 460.041C238.923 453.043 255.276 483.194 249.858 492.846C247.209 497.57 230.322 462.695 230.322 462.695C230.322 462.695 237.491 495.462 232.921 498.644C228.357 501.832 216.574 470.321 216.574 470.321C216.574 470.321 217.124 495.919 211.695 496.238C206.272 496.557 208.221 470.249 186.444 458.857C164.662 447.465 65.4486 526.312 63.092 461.693C60.7354 397.074 89.846 374.686 157.279 386.419C210.495 395.681 218.892 401.55 236.621 415.381Z" fill="#FFC6A6"/>
<path d="M298.658 415.381C298.658 415.381 270.764 448.875 270.835 481.113C270.879 501.639 285.988 467.045 291.175 460.041C296.356 453.043 280.003 483.194 285.421 492.846C288.069 497.57 304.956 462.695 304.956 462.695C304.956 462.695 297.788 495.462 302.358 498.644C306.922 501.832 318.705 470.321 318.705 470.321C318.705 470.321 318.155 495.919 323.584 496.238C329.007 496.557 327.058 470.249 348.834 458.857C370.616 447.465 482.417 534.059 484.774 469.44C487.125 404.821 445.433 374.686 378 386.419C324.784 395.681 316.387 401.55 298.658 415.381Z" fill="#FFC6A6"/>
<path d="M329.706 471.703C329.706 471.703 330.301 415.013 361.284 415.381C392.266 415.756 406.995 443.446 377.835 459.777C348.675 476.113 328.886 482.77 329.706 471.703Z" fill="white"/>
<path d="M353.084 436.401C353.084 436.401 358.034 447.925 369.723 449.082C381.407 450.238 407.974 449.082 410.287 465.831C412.594 482.581 398.707 505.679 381.683 503.372C364.663 501.059 347.187 497.585 332.833 507.204C318.478 516.823 332.844 429.497 353.084 436.401Z" fill="white"/>
<path d="M382.564 346.58C382.564 354.234 376.358 360.439 368.705 360.439C361.046 360.439 354.841 354.234 354.841 346.58C354.841 338.927 361.046 332.722 368.705 332.722C376.358 332.722 382.564 338.927 382.564 346.58Z" fill="white"/>
<path d="M221.859 346.58C221.859 354.234 215.653 360.439 208 360.439C200.341 360.439 194.136 354.234 194.136 346.58C194.136 338.927 200.341 332.722 208 332.722C215.653 332.722 221.859 338.927 221.859 346.58Z" fill="white"/>
<path d="M265.959 202.745C255.377 202.745 246.066 195.428 245.636 195.075C244.739 194.371 244.596 193.071 245.306 192.179C246.011 191.293 247.31 191.138 248.202 191.849C248.312 191.931 258.779 200.119 268.966 198.362C273.877 197.498 278.012 194.387 281.261 189.112C281.861 188.138 283.144 187.829 284.102 188.435C285.076 189.035 285.374 190.307 284.779 191.276C280.881 197.608 275.793 201.363 269.659 202.431C268.415 202.646 267.182 202.745 265.959 202.745Z" fill="#EE9B68"/>
<path d="M182.278 261.038C182.278 261.038 143.124 316.193 141.982 348.606C140.84 381.019 105.798 394.689 115.729 441.389C119.645 459.778 130.647 485.839 120.098 496.121C92.6158 522.908 66.0858 503.496 61.507 496.121C28.4028 442.766 68.4826 316.612 103.358 288.54C129.665 261.038 182.278 261.038 182.278 261.038Z" fill="#D9423D"/>
<path d="M364.031 258.648C364.031 258.648 407.567 314.556 408.767 346.006C409.967 377.456 446.791 390.72 436.355 436.033C432.24 453.876 413.093 480.011 433.042 489.14C456.655 499.943 494.34 492.996 499.151 485.84C546.981 430.836 483.187 319.366 446.538 292.129C414.253 265.822 364.031 258.648 364.031 258.648Z" fill="#D9423D"/>
<path d="M267.116 8.71673C266.472 8.71673 265.773 8.7915 265.016 8.94102C263.17 9.31159 261.973 10.2087 261.255 11.7658C258.053 18.6959 264.805 35.2022 269.628 44.9538C272.609 34.136 276.182 16.0532 271.133 10.355C270.162 9.25958 268.839 8.71673 267.116 8.71673ZM270.191 53.0932C269.388 53.0932 268.637 52.6609 268.24 51.9458C266.534 48.887 251.737 21.7222 257.198 9.89343C258.512 7.0492 260.914 5.20289 264.142 4.55929C269.641 3.46386 272.801 5.49545 274.478 7.39051C283.248 17.2917 273.461 48.0809 272.317 51.5589C272.037 52.4008 271.289 52.9989 270.405 53.0834C270.334 53.0899 270.262 53.0932 270.191 53.0932Z" fill="#FFD310"/>
<path d="M297.24 19.7081C297.029 19.7081 296.814 19.7211 296.6 19.7536C289.049 20.758 279.924 36.7734 275.101 46.9054C285.129 42.6829 301.034 34.6183 303.146 27.2851C303.621 25.6338 303.302 24.1743 302.148 22.6856C300.595 20.6865 298.986 19.7081 297.24 19.7081ZM270.813 53.2342C270.212 53.2342 269.624 52.9937 269.198 52.5451C268.583 51.9015 268.408 50.9588 268.749 50.1397C270.16 46.7624 282.895 17.0719 296.008 15.3231C298.521 14.9883 302.236 15.5149 305.675 19.9421C307.697 22.5425 308.308 25.5103 307.44 28.5203C303.832 41.0381 274.867 51.9015 271.577 53.1009C271.327 53.1919 271.07 53.2342 270.813 53.2342Z" fill="#FFD310"/>
<path d="M228.861 45.3416C239.715 52.3194 264.525 57.7467 283.908 45.3416" stroke="#FFD310" stroke-width="3.87"/>
<defs>
<linearGradient id="paint0_linear" x1="1.34889" y1="465.289" x2="32.6069" y2="573.824" gradientUnits="userSpaceOnUse">
<stop stop-color="#FFCECE"/>
<stop offset="1" stop-color="#FFF2F2"/>
</linearGradient>
<linearGradient id="paint1_linear" x1="63.4995" y1="97.5001" x2="473.884" y2="408.938" gradientUnits="userSpaceOnUse">
<stop stop-color="#FFDADA"/>
<stop offset="1" stop-color="white"/>
</linearGradient>
<linearGradient id="paint2_linear" x1="510.981" y1="178.886" x2="390.952" y2="127.619" gradientUnits="userSpaceOnUse">
<stop stop-color="#FFDFDF"/>
<stop offset="1" stop-color="#FFF5F5"/>
</linearGradient>
<linearGradient id="paint3_linear" x1="483.888" y1="516.965" x2="1.36152" y2="237.536" gradientUnits="userSpaceOnUse">
<stop stop-color="#FFE0E0"/>
<stop offset="1" stop-color="#FFF4F4"/>
</linearGradient>
</defs>
</svg>
